<?xml version="1.0" encoding="utf-8"?>
<!-- Generator: Adobe Illustrator 25.2.1, SVG Export Plug-In . SVG Version: 6.00 Build 0)  -->
<svg version="1.1" id="圖層_1" xmlns="http://www.w3.org/2000/svg" xmlns:xlink="http://www.w3.org/1999/xlink" x="0px" y="0px" width="462px" height="242px"
	 viewBox="0 0 485 265" style="enable-background:new 0 0 485 265;" xml:space="preserve">
<style type="text/css">
	.st0{fill:none;stroke:#B4B4B5;stroke-width:0.9411;stroke-miterlimit:10;}
	.st1{fill:none;stroke:#B4B4B5;stroke-miterlimit:10;}
	.st2{fill:#FFDA00;}
	.st3{fill:#FFFFFF;}
	.st4{fill:#231815;}
	.st5{font-family:'MicrosoftJhengHeiBold';}
	.st6{font-size:13px;}
</style>
<line class="st0" x1="255.9" y1="34.8" x2="255.9" y2="246.1"/>
<line class="st1" x1="363.9" y1="68.5" x2="255.2" y2="67.9"/>
<line class="st1" x1="194.3" y1="109.8" x2="117.1" y2="109.2"/>
<line class="st1" x1="363.9" y1="151" x2="255.2" y2="150.4"/>
<g>
	<g>
		<path class="st2" d="M329.3,39c0,3.6-2.9,6.5-6.5,6.5H187.1c-3.6,0-6.5-2.9-6.5-6.5V17.4c0-3.6,2.9-6.5,6.5-6.5h135.8
			c3.6,0,6.5,2.9,6.5,6.5V39z"/>
	</g>
</g>
<path class="st3" d="M321.3,41.6H188.6c-2.2,0-4-1.8-4-4v-19c0-2.2,1.8-4,4-4h132.7c2.2,0,4,1.8,4,4v19
	C325.3,39.9,323.5,41.6,321.3,41.6z M188.6,16.5c-1.2,0-2.2,1-2.2,2.2v19c0,1.2,1,2.2,2.2,2.2h132.7c1.2,0,2.2-1,2.2-2.2v-19
	c0-1.2-1-2.2-2.2-2.2H188.6z"/>
<text transform="matrix(1 0 0 1 228.8165 32.7498)" class="st4 st5 st6">股東大會</text>
<g>
	<g>
		<path class="st2" d="M329.3,119.9c0,3.6-2.9,6.5-6.5,6.5H187.1c-3.6,0-6.5-2.9-6.5-6.5V98.3c0-3.6,2.9-6.5,6.5-6.5h135.8
			c3.6,0,6.5,2.9,6.5,6.5V119.9z"/>
	</g>
</g>
<path class="st3" d="M321.3,122.6H188.6c-2.2,0-4-1.8-4-4v-19c0-2.2,1.8-4,4-4h132.7c2.2,0,4,1.8,4,4v19
	C325.3,120.8,323.5,122.6,321.3,122.6z M188.6,97.4c-1.2,0-2.2,1-2.2,2.2v19c0,1.2,1,2.2,2.2,2.2h132.7c1.2,0,2.2-1,2.2-2.2v-19
	c0-1.2-1-2.2-2.2-2.2H188.6z"/>
<text transform="matrix(1 0 0 1 234.8022 115.3237)" class="st4 st5 st6">董事會</text>
<g>
	<g>
		<path class="st2" d="M329.3,201c0,3.6-2.9,6.5-6.5,6.5H187.1c-3.6,0-6.5-2.9-6.5-6.5v-21.6c0-3.6,2.9-6.5,6.5-6.5h135.8
			c3.6,0,6.5,2.9,6.5,6.5V201z"/>
	</g>
</g>
<path class="st3" d="M321.3,203.7H188.6c-2.2,0-4-1.8-4-4v-19c0-2.2,1.8-4,4-4h132.7c2.2,0,4,1.8,4,4v19
	C325.3,201.9,323.5,203.7,321.3,203.7z M188.6,178.6c-1.2,0-2.2,1-2.2,2.2v19c0,1.2,1,2.2,2.2,2.2h132.7c1.2,0,2.2-1,2.2-2.2v-19
	c0-1.2-1-2.2-2.2-2.2H188.6z"/>
<text transform="matrix(1 0 0 1 236.1324 194.801)" class="st4 st5 st6">董事長</text>
<g>
	<g>
		<path class="st2" d="M329.3,246.9c0,3.6-2.9,6.5-6.5,6.5H187.1c-3.6,0-6.5-2.9-6.5-6.5v-21.6c0-3.6,2.9-6.5,6.5-6.5h135.8
			c3.6,0,6.5,2.9,6.5,6.5V246.9z"/>
	</g>
</g>
<path class="st3" d="M321.3,249.6H188.6c-2.2,0-4-1.8-4-4v-19c0-2.2,1.8-4,4-4h132.7c2.2,0,4,1.8,4,4v19
	C325.3,247.8,323.5,249.6,321.3,249.6z M188.6,224.5c-1.2,0-2.2,1-2.2,2.2v19c0,1.2,1,2.2,2.2,2.2h132.7c1.2,0,2.2-1,2.2-2.2v-19
	c0-1.2-1-2.2-2.2-2.2H188.6z"/>
<text transform="matrix(1 0 0 1 236.1324 240.6917)" class="st4 st5 st6">總經理</text>
<g>
	<g>
		<path class="st2" d="M160.4,119.9c0,3.6-2.9,6.5-6.5,6.5H18.2c-3.6,0-6.5-2.9-6.5-6.5V98.3c0-3.6,2.9-6.5,6.5-6.5h135.8
			c3.6,0,6.5,2.9,6.5,6.5V119.9z"/>
	</g>
</g>
<path class="st3" d="M152.4,122.6H19.7c-2.2,0-4-1.8-4-4v-19c0-2.2,1.8-4,4-4h132.7c2.2,0,4,1.8,4,4v19
	C156.3,120.8,154.6,122.6,152.4,122.6z M19.7,97.4c-1.2,0-2.2,1-2.2,2.2v19c0,1.2,1,2.2,2.2,2.2h132.7c1.2,0,2.2-1,2.2-2.2v-19
	c0-1.2-1-2.2-2.2-2.2H19.7z"/>
<text transform="matrix(1 0 0 1 54.565 113.661)" class="st4 st5 st6">薪酬委員會</text>
<g>
	<g>
		<path class="st2" d="M474.2,78.5c0,3.6-2.9,6.5-6.5,6.5H332c-3.6,0-6.5-2.9-6.5-6.5V56.9c0-3.6,2.9-6.5,6.5-6.5h135.8
			c3.6,0,6.5,2.9,6.5,6.5V78.5z"/>
	</g>
</g>
<path class="st3" d="M466.2,81.2H333.6c-2.2,0-4-1.8-4-4v-19c0-2.2,1.8-4,4-4h132.7c2.2,0,4,1.8,4,4v19
	C470.2,79.4,468.4,81.2,466.2,81.2z M333.6,56.1c-1.2,0-2.2,1-2.2,2.2v19c0,1.2,1,2.2,2.2,2.2h132.7c1.2,0,2.2-1,2.2-2.2v-19
	c0-1.2-1-2.2-2.2-2.2H333.6z"/>
<text transform="matrix(1 0 0 1 385.0554 72.2668)" class="st4 st5 st6">監察人</text>
<g>
	<g>
		<path class="st2" d="M474.2,161c0,3.6-2.9,6.5-6.5,6.5H332c-3.6,0-6.5-2.9-6.5-6.5v-21.6c0-3.6,2.9-6.5,6.5-6.5h135.8
			c3.6,0,6.5,2.9,6.5,6.5V161z"/>
	</g>
</g>
<path class="st3" d="M466.2,163.6H333.6c-2.2,0-4-1.8-4-4v-19c0-2.2,1.8-4,4-4h132.7c2.2,0,4,1.8,4,4v19
	C470.2,161.8,468.4,163.6,466.2,163.6z M333.6,138.5c-1.2,0-2.2,1-2.2,2.2v19c0,1.2,1,2.2,2.2,2.2h132.7c1.2,0,2.2-1,2.2-2.2v-19
	c0-1.2-1-2.2-2.2-2.2H333.6z"/>
<text transform="matrix(1 0 0 1 383.0601 154.7298)" class="st4 st5 st6">稽核室</text>
</svg>
