<?xml version="1.0" encoding="utf-8"?>
<!-- Generator: Adobe Illustrator 25.2.1, SVG Export Plug-In . SVG Version: 6.00 Build 0)  -->
<svg version="1.1" id="Layer_1" xmlns="http://www.w3.org/2000/svg" xmlns:xlink="http://www.w3.org/1999/xlink" x="0px" y="0px" width="40" height="40"
	 viewBox="0 0 40 40" style="enable-background:new 0 0 40 40;" xml:space="preserve">
<style type="text/css">
	.st0{fill:none;stroke:#FFFFFF;stroke-width:1.7147;stroke-linecap:round;stroke-linejoin:round;stroke-miterlimit:10;}
</style>
<g>
	<g>
		<circle class="st0" cx="10" cy="5.8" r="3"/>
		<path class="st0" d="M5.9,25.5C4.4,25,3.3,23.6,3.3,22v-6.6c0-2,1.6-3.6,3.6-3.6h6.2c2,0,3.6,1.6,3.6,3.6V22c0,1.5-1,2.8-2.3,3.4"
			/>
		<g>
			<polyline class="st0" points="6.4,17.6 6.4,37 13.6,37 13.6,17.6 			"/>
			<line class="st0" x1="10" y1="26.5" x2="10" y2="37"/>
		</g>
	</g>
	<g>
		<circle class="st0" cx="20.3" cy="5.8" r="3"/>
		<path class="st0" d="M18.4,11.7h5c2,0,3.6,1.6,3.6,3.6V22c0,1.5-1,2.8-2.3,3.4"/>
		<g>
			<polyline class="st0" points="16.7,37 23.9,37 23.9,17.6 			"/>
			<line class="st0" x1="20.3" y1="26.5" x2="20.3" y2="37"/>
		</g>
	</g>
	<g>
		<circle class="st0" cx="30.7" cy="5.8" r="3"/>
		<path class="st0" d="M28.8,11.7h5c2,0,3.6,1.6,3.6,3.6V22c0,1.5-1,2.8-2.3,3.4"/>
		<g>
			<polyline class="st0" points="27.1,37 34.3,37 34.3,17.6 			"/>
			<line class="st0" x1="30.7" y1="26.5" x2="30.7" y2="37"/>
		</g>
	</g>
</g>
</svg>
