<?xml version="1.0" encoding="utf-8"?>
<!-- Generator: Adobe Illustrator 25.2.1, SVG Export Plug-In . SVG Version: 6.00 Build 0)  -->
<svg version="1.1" id="Layer_1" xmlns="http://www.w3.org/2000/svg" xmlns:xlink="http://www.w3.org/1999/xlink" x="0px" y="0px" width="40px" height="40px"

	 viewBox="0 0 40 40" style="enable-background:new 0 0 40 40;" xml:space="preserve">
<style type="text/css">
	.st0{fill:none;stroke:#E60012;stroke-width:1.7;stroke-linecap:round;stroke-linejoin:round;stroke-miterlimit:10;}
	.st1{fill:none;stroke:#808080;stroke-width:1.7;stroke-linecap:round;stroke-linejoin:round;stroke-miterlimit:10;}
</style>
<g>
	<path class="st0" d="M24.3,17.2c0.5-0.8,0.7-1.5,0.7-2.4c0-1.5-1.2-2.8-2.8-2.8c-1,0-1.9,0.6-2.4,1.4c-0.5-0.9-1.4-1.4-2.4-1.4
		c-1.5,0-2.8,1.2-2.8,2.8c0,0.6,0.1,1.5,0.8,2.3c2.1,2.6,4.5,3.9,4.5,3.9S22.4,19.9,24.3,17.2z"/>
	<path class="st0" d="M22.7,6.7c0.3-0.5,0.5-1,0.5-1.5c0-1-0.8-1.8-1.8-1.8c-0.7,0-1.3,0.4-1.6,0.9c-0.3-0.5-0.9-0.9-1.6-0.9
		c-1,0-1.8,0.8-1.8,1.8c0,0.4,0.1,1,0.5,1.5c1.3,1.7,2.9,2.5,2.9,2.5S21.5,8.4,22.7,6.7z"/>
	<g>
		<path class="st0" d="M34.6,11.3c0.4-0.6,0.5-1.2,0.5-1.8c0-1.1-0.9-2.1-2.1-2.1c-0.8,0-1.5,0.4-1.8,1.1c-0.4-0.6-1-1.1-1.8-1.1
			c-1.1,0-2.1,0.9-2.1,2.1c0,0.5,0.1,1.1,0.6,1.8c1.6,2,3.4,2.9,3.4,2.9S33.2,13.3,34.6,11.3z"/>
		<path class="st0" d="M11.7,11.3c0.4-0.6,0.5-1.2,0.5-1.8c0-1.1-0.9-2.1-2.1-2.1c-0.8,0-1.5,0.4-1.8,1.1C8,7.9,7.3,7.4,6.5,7.4
			c-1.1,0-2.1,0.9-2.1,2.1c0,0.5,0.1,1.1,0.6,1.8c1.6,2,3.4,2.9,3.4,2.9S10.3,13.3,11.7,11.3z"/>
	</g>
	<g>
		<path class="st0" d="M35.8,23.2c0.4-0.7,0.6-1.4,0.6-2.1c0-1.3-1.1-2.4-2.4-2.4c-0.9,0-1.7,0.5-2.1,1.3c-0.4-0.8-1.2-1.3-2.1-1.3
			c-1.3,0-2.4,1.1-2.4,2.4c0,0.6,0.1,1.3,0.7,2.1c1.8,2.3,4,3.5,4,3.5S34.1,25.6,35.8,23.2z"/>
		<path class="st0" d="M11.7,23.2c0.4-0.7,0.6-1.4,0.6-2.1c0-1.3-1.1-2.4-2.4-2.4c-0.9,0-1.7,0.5-2.1,1.3c-0.4-0.8-1.2-1.3-2.1-1.3
			c-1.3,0-2.4,1.1-2.4,2.4c0,0.6,0.1,1.3,0.7,2.1c1.8,2.3,4,3.5,4,3.5S10,25.6,11.7,23.2z"/>
	</g>
	<line class="st1" x1="19.8" y1="24.6" x2="19.8" y2="35.5"/>
	<polyline class="st1" points="13.2,26.6 19.7,31.8 26.5,26.6 	"/>
	<line class="st1" x1="8.8" y1="36.1" x2="30.9" y2="36.1"/>
</g>
</svg>
