<?xml version="1.0" encoding="utf-8"?>
<!-- Generator: Adobe Illustrator 25.2.1, SVG Export Plug-In . SVG Version: 6.00 Build 0)  -->
<svg version="1.1" id="Layer_1" xmlns="http://www.w3.org/2000/svg" xmlns:xlink="http://www.w3.org/1999/xlink" x="0px" y="0px" width="40px" height="40px"
	 viewBox="0 0 40 40" style="enable-background:new 0 0 40 40;" xml:space="preserve">
<style type="text/css">
	.st0{fill:none;stroke:#808080;stroke-width:1.6076;stroke-linecap:round;stroke-linejoin:round;stroke-miterlimit:10;}
	.st1{fill:none;stroke:#E60012;stroke-width:0.4019;stroke-miterlimit:10;}
	.st2{fill:#E60012;}
	.st3{fill:none;stroke:#E60012;stroke-width:1.6076;stroke-linecap:round;stroke-linejoin:round;stroke-miterlimit:10;}
</style>
<g>
	<polygon class="st0" points="21.7,29.2 11.2,29.2 5.6,33.9 5.6,29.2 2.7,29.2 2.7,14.8 21.7,14.8 	"/>
	<polyline class="st0" points="17.1,12.5 17.1,6.8 36.3,6.8 36.3,23 32,23 32,28.1 26.4,23 24.7,23 	"/>
	<g>
		<path class="st1" d="M30.4,12.2c0,0.5-0.2,1-0.5,1.5c-0.2,0.3-0.6,0.6-1.2,1.1c-0.4,0.3-0.6,0.5-0.7,0.8c-0.1,0.2-0.1,0.7-0.1,1.3
			c0,0.5-0.2,0.8-0.6,0.8c-0.4,0-0.6-0.2-0.6-0.7c0-0.8,0.1-1.4,0.2-1.7c0.1-0.4,0.5-0.8,1-1.3c0.5-0.4,0.8-0.7,1-0.8
			c0.3-0.3,0.4-0.6,0.4-1c0-0.4-0.2-0.8-0.6-1c-0.4-0.2-0.8-0.3-1.3-0.3c-0.6,0-1.2,0.1-1.6,0.4c-0.5,0.3-0.7,0.8-0.7,1.4
			c0,0.1-0.1,0.3-0.2,0.4c-0.1,0.1-0.2,0.2-0.4,0.2c-0.4,0-0.6-0.3-0.6-0.8c0-0.8,0.3-1.5,1-2.1c0.6-0.5,1.5-0.8,2.5-0.8
			c0.9,0,1.6,0.2,2.2,0.6C30.1,10.6,30.4,11.3,30.4,12.2z M28,19.6c0,0.2-0.1,0.4-0.2,0.6c-0.2,0.2-0.3,0.2-0.6,0.2
			c-0.2,0-0.4-0.1-0.6-0.2c-0.2-0.2-0.2-0.3-0.2-0.6s0.1-0.4,0.2-0.6c0.2-0.2,0.3-0.2,0.6-0.2c0.2,0,0.4,0.1,0.6,0.2
			C27.9,19.2,28,19.4,28,19.6z"/>
	</g>
	<g>
		<path class="st2" d="M30.4,12.2c0,0.5-0.2,1-0.5,1.5c-0.2,0.3-0.6,0.6-1.2,1.1c-0.4,0.3-0.6,0.5-0.7,0.8c-0.1,0.2-0.1,0.7-0.1,1.3
			c0,0.5-0.2,0.8-0.6,0.8c-0.4,0-0.6-0.2-0.6-0.7c0-0.8,0.1-1.4,0.2-1.7c0.1-0.4,0.5-0.8,1-1.3c0.5-0.4,0.8-0.7,1-0.8
			c0.3-0.3,0.4-0.6,0.4-1c0-0.4-0.2-0.8-0.6-1c-0.4-0.2-0.8-0.3-1.3-0.3c-0.6,0-1.2,0.1-1.6,0.4c-0.5,0.3-0.7,0.8-0.7,1.4
			c0,0.1-0.1,0.3-0.2,0.4c-0.1,0.1-0.2,0.2-0.4,0.2c-0.4,0-0.6-0.3-0.6-0.8c0-0.8,0.3-1.5,1-2.1c0.6-0.5,1.5-0.8,2.5-0.8
			c0.9,0,1.6,0.2,2.2,0.6C30.1,10.6,30.4,11.3,30.4,12.2z M28,19.6c0,0.2-0.1,0.4-0.2,0.6c-0.2,0.2-0.3,0.2-0.6,0.2
			c-0.2,0-0.4-0.1-0.6-0.2c-0.2-0.2-0.2-0.3-0.2-0.6s0.1-0.4,0.2-0.6c0.2-0.2,0.3-0.2,0.6-0.2c0.2,0,0.4,0.1,0.6,0.2
			C27.9,19.2,28,19.4,28,19.6z"/>
	</g>
</g>
<line class="st3" x1="7.4" y1="20.4" x2="17.7" y2="20.4"/>
<line class="st3" x1="7.4" y1="24.4" x2="15.3" y2="24.4"/>
</svg>
