<?xml version="1.0" encoding="utf-8"?>
<!-- Generator: Adobe Illustrator 25.2.1, SVG Export Plug-In . SVG Version: 6.00 Build 0)  -->
<svg version="1.1" id="Layer_1" xmlns="http://www.w3.org/2000/svg" xmlns:xlink="http://www.w3.org/1999/xlink" x="0px" y="0px" width="40px" height="40px"
	 viewBox="0 0 40 40" style="enable-background:new 0 0 40 40;" xml:space="preserve">
<style type="text/css">
	.st0{fill:none;stroke:#808080;stroke-width:1.7;stroke-linecap:round;stroke-linejoin:round;stroke-miterlimit:10;}
	.st1{fill:none;stroke:#E60012;stroke-width:1.7;stroke-linecap:round;stroke-linejoin:round;stroke-miterlimit:10;}
</style>
<g>
	<polyline class="st0" points="27.8,29.5 27.8,34.4 2.5,34.4 2.5,9.2 8.6,3 27.8,3 27.8,11 	"/>
	<polyline class="st0" points="6,11 10.4,11 10.4,6.5 	"/>
	<line class="st0" x1="8.2" y1="18.7" x2="19.6" y2="18.7"/>
	<line class="st0" x1="8.2" y1="23.8" x2="17.3" y2="23.8"/>
	<line class="st0" x1="8.2" y1="28.9" x2="17.3" y2="28.9"/>
	<path class="st1" d="M20.4,28.3c0,0,2.4-7,2.6-7.2l10.3-10.3c0.3-0.3,0.7-0.3,1,0l3.8,3.8c0.3,0.3,0.3,0.7,0,1L27.8,25.8
		C27.5,26,20.4,28.3,20.4,28.3z"/>
	<line class="st1" x1="23.1" y1="21.1" x2="27.7" y2="25.7"/>
	<line class="st1" x1="30.8" y1="13.4" x2="35.5" y2="18"/>
	<line class="st1" x1="30.8" y1="18" x2="25.4" y2="23.4"/>
</g>
</svg>
