<?xml version="1.0" encoding="utf-8"?>
<!-- Generator: Adobe Illustrator 25.2.1, SVG Export Plug-In . SVG Version: 6.00 Build 0)  -->
<svg version="1.1" id="Layer_1" xmlns="http://www.w3.org/2000/svg" xmlns:xlink="http://www.w3.org/1999/xlink" x="0px" y="0px" width="40px" height="40px"
	 viewBox="0 0 40 40" style="enable-background:new 0 0 40 40;" xml:space="preserve">
<style type="text/css">
	.st0{fill:none;stroke:#808080;stroke-width:1.7489;stroke-linecap:round;stroke-linejoin:round;stroke-miterlimit:10;}
	.st1{fill:none;stroke:#E60012;stroke-width:1.3117;stroke-linecap:round;stroke-linejoin:round;stroke-miterlimit:10;}
</style>
<g>
	<g>
		<g>
			<circle class="st0" cx="20.1" cy="6.2" r="3"/>
			<path class="st0" d="M15.9,26.3c-1.5-0.5-2.7-1.9-2.7-3.6V16c0-2,1.7-3.7,3.7-3.7h6.3c2,0,3.7,1.7,3.7,3.7v6.8
				c0,1.6-1,2.9-2.3,3.5"/>
			<g>
				<polyline class="st0" points="16.4,18.3 16.4,35.6 23.8,35.6 23.8,18.3 				"/>
				<line class="st0" x1="20.1" y1="24.9" x2="20.1" y2="35.6"/>
			</g>
		</g>
	</g>
	<g>
		<polyline class="st1" points="26.9,29.3 33.4,22.9 31.5,21 37.4,21 37.4,27 35.5,25.3 27.4,34.1 		"/>
		<polyline class="st1" points="13.4,29.3 6.9,22.9 8.9,21 2.9,21 2.9,27 4.8,25.3 12.9,34.1 		"/>
	</g>
</g>
</svg>
