<?xml version="1.0" encoding="utf-8"?>
<!-- Generator: Adobe Illustrator 25.2.1, SVG Export Plug-In . SVG Version: 6.00 Build 0)  -->
<svg version="1.1" id="Layer_1" xmlns="http://www.w3.org/2000/svg" xmlns:xlink="http://www.w3.org/1999/xlink" x="0px" y="0px" width="40" height="40"
	 viewBox="0 0 40 40" style="enable-background:new 0 0 40 40;" xml:space="preserve">
<style type="text/css">
	.st0{fill:none;stroke:#FFFFFF;stroke-width:1.7;stroke-linecap:round;stroke-linejoin:round;stroke-miterlimit:10;}
</style>
<g>
	<g>
		<circle class="st0" cx="8.4" cy="11.1" r="2.9"/>
		<path class="st0" d="M12.6,19c-0.6-2.6-1.5-4.1-4.1-4.1c-2.5,0-3.7,1.6-4.1,4.1l-0.6,3.5"/>
	</g>
	<g>
		<circle class="st0" cx="31.9" cy="11.1" r="2.9"/>
		<path class="st0" d="M27.8,19c0.6-2.6,1.5-4.1,4.1-4.1c2.5,0,3.7,1.6,4.1,4.1l0.6,3.5"/>
	</g>
	<g>
		<circle class="st0" cx="20.1" cy="7.8" r="3.2"/>
		<path class="st0" d="M14.5,21.6l1-5c0.5-2.8,1.8-4.6,4.6-4.6c2.9,0,4,1.8,4.6,4.6l1.2,4.9"/>
	</g>
</g>
<polyline class="st0" points="31.7,26 37.6,26 34.7,29.2 37.6,32.4 27.3,32.4 "/>
<polyline class="st0" points="12.9,32.4 2.4,32.4 5.3,29.2 2.4,26 8.4,26 "/>
<polygon class="st0" points="23,24.8 29.3,25.8 24.7,30.2 25.7,36.4 20.1,33.5 14.5,36.4 15.6,30.1 11.1,25.7 17.4,24.8 20.2,19.1 
	"/>
</svg>
