<?xml version="1.0" encoding="utf-8"?>
<!-- Generator: Adobe Illustrator 25.2.1, SVG Export Plug-In . SVG Version: 6.00 Build 0)  -->
<svg version="1.1" id="Layer_1" xmlns="http://www.w3.org/2000/svg" xmlns:xlink="http://www.w3.org/1999/xlink" x="0px" y="0px" width="40" height="40"
	 viewBox="0 0 40 40" style="enable-background:new 0 0 40 40;" xml:space="preserve">
<style type="text/css">
	.st0{fill:none;stroke:#FFFFFF;stroke-width:1.7;stroke-linecap:round;stroke-linejoin:round;stroke-miterlimit:10;}
</style>
<g>
	<g>
		<path class="st0" d="M24.9,17.1l7.5,6.3c0.9,0.9,0.9,2.3,0,3.2c-0.9,0.9-2.3,0.9-3.2,0L22.6,21"/>
		<path class="st0" d="M29.9,27.3c0.9,0.9,0.9,2.2,0,3.1s-2.2,0.9-3.1,0l-7.5-6.1"/>
		<path class="st0" d="M26.7,30.4c0.8,0.8,0.8,2.1,0,2.9s-2.1,0.8-2.9,0l-6.9-5.7"/>
		<path class="st0" d="M22.6,32.3c0.8,0.8,0.8,2.1,0,2.9c-0.8,0.8-2.1,0.8-2.9,0L5.4,23.4c-3.9-3.9-3.9-10.3,0-14.3s10.3-3.9,14.3,0
			l1.1,1.1"/>
	</g>
	<path class="st0" d="M34.7,23.2c3.7-3.7,3.7-9.7,0-13.4s-9.7-3.7-13.4,0l-6.4,6c-0.8,0.8-0.8,2.1,0,2.9c0.8,0.8,2.1,0.8,2.9,0
		l4.8-4.4c0,0,1.6-1.6,2.6-0.6l-0.4,3.4"/>
</g>
</svg>
