<?xml version="1.0" encoding="utf-8"?>
<!-- Generator: Adobe Illustrator 25.2.1, SVG Export Plug-In . SVG Version: 6.00 Build 0)  -->
<svg version="1.1" id="Layer_1" xmlns="http://www.w3.org/2000/svg" xmlns:xlink="http://www.w3.org/1999/xlink" x="0px" y="0px" width="40px" height="40px"
	 viewBox="0 0 40 40" style="enable-background:new 0 0 40 40;" xml:space="preserve">
<style type="text/css">
	.st0{fill:none;stroke:#E60012;stroke-width:1.7;stroke-linecap:round;stroke-linejoin:round;stroke-miterlimit:10;}
	.st1{fill:none;stroke:#808080;stroke-width:1.7;stroke-linecap:round;stroke-linejoin:round;stroke-miterlimit:10;}
</style>
<g>
	<circle class="st0" cx="27.8" cy="10.2" r="2.8"/>
	<path class="st0" d="M34.2,13.5c0.5-1,0.8-2.1,0.8-3.3c0-4-3.2-7.2-7.2-7.2s-7.2,3.2-7.2,7.2c0,1.3,0.3,2.4,0.9,3.5l6.4,9.7
		L34.2,13.5z"/>
	<path class="st1" d="M35.7,18.3c0.2,1.1,0.3,2.2,0.3,3.3c-0.2,8.9-7.6,15.9-16.4,15.7S3.7,29.7,3.9,20.9C4.1,12.9,10,6.5,17.6,5.4"
		/>
	<polyline class="st1" points="9.5,10.2 10.8,11 13.3,11.7 13.6,10.2 14.9,8.5 17.1,9.6 17.1,12.4 15.7,13.6 14.4,15.9 12.9,17 
		12.7,18.9 10.5,17.8 8.4,18.5 10.4,21.3 12.7,22.4 15.6,22.4 18.3,24.8 20.6,24.8 21.9,27.3 19.5,30.3 16,33.8 15.7,36.1 	"/>
	<polyline class="st1" points="13.6,35.4 13.6,33.7 14.7,31 13.6,29.2 11.7,27.2 11.7,24.6 9.8,23.3 7.1,23.3 4,19.8 	"/>
</g>
</svg>
