<?xml version="1.0" encoding="utf-8"?>
<!-- Generator: Adobe Illustrator 25.2.1, SVG Export Plug-In . SVG Version: 6.00 Build 0)  -->
<svg version="1.1" id="Layer_1" xmlns="http://www.w3.org/2000/svg" xmlns:xlink="http://www.w3.org/1999/xlink" x="0px" y="0px" width="40px" height="40px"
	 viewBox="0 0 40 40" style="enable-background:new 0 0 40 40;" xml:space="preserve">
<style type="text/css">
	.st0{fill:none;stroke:#808080;stroke-width:1.5226;stroke-linecap:round;stroke-linejoin:round;stroke-miterlimit:10;}
	.st1{fill:none;stroke:#E60012;stroke-width:1.5226;stroke-linecap:round;stroke-linejoin:round;stroke-miterlimit:10;}
</style>
<g>
	<g>
		<circle class="st0" cx="20.5" cy="7.7" r="2.8"/>
		<g>
			<path class="st0" d="M17.1,17.3v19.4h6.7V17.3l8.4-8c0.6-0.6,0.6-1.6,0-2.2c-0.6-0.6-1.6-0.6-2.2,0l-9.5,9"/>
			<path class="st0" d="M17.1,17.3l-8.4-8C8.1,8.7,8.1,7.7,8.8,7s1.6-0.6,2.2,0l9.5,9"/>
			<line class="st0" x1="20.5" y1="27" x2="20.5" y2="36.7"/>
		</g>
	</g>
	<g>
		<line class="st1" x1="30.6" y1="15.9" x2="35.1" y2="13.6"/>
		<line class="st1" x1="30.6" y1="28.1" x2="35.1" y2="30.4"/>
		<line class="st1" x1="32.7" y1="22" x2="37.8" y2="22"/>
		<line class="st1" x1="31.8" y1="19.1" x2="34.4" y2="18.4"/>
		<line class="st1" x1="31.8" y1="25.3" x2="34.4" y2="26"/>
		<line class="st1" x1="28.4" y1="30.4" x2="30.6" y2="32.2"/>
	</g>
	<g>
		<line class="st1" x1="10.4" y1="15.9" x2="5.8" y2="13.6"/>
		<line class="st1" x1="10.4" y1="28.1" x2="5.9" y2="30.4"/>
		<line class="st1" x1="8.2" y1="22" x2="3.2" y2="22"/>
		<line class="st1" x1="9.2" y1="19.1" x2="6.6" y2="18.4"/>
		<line class="st1" x1="9.2" y1="25.3" x2="6.6" y2="26"/>
		<line class="st1" x1="12.5" y1="30.4" x2="10.4" y2="32.2"/>
	</g>
</g>
</svg>
