<?xml version="1.0" encoding="utf-8"?>
<!-- Generator: Adobe Illustrator 25.2.1, SVG Export Plug-In . SVG Version: 6.00 Build 0)  -->
<svg version="1.1" id="Layer_1" xmlns="http://www.w3.org/2000/svg" xmlns:xlink="http://www.w3.org/1999/xlink" x="0px" y="0px" width="40px" height="40px"
	 viewBox="0 0 40 40" style="enable-background:new 0 0 40 40;" xml:space="preserve">
<style type="text/css">
	.st0{fill:none;stroke:#808080;stroke-width:1.7;stroke-linecap:round;stroke-linejoin:round;stroke-miterlimit:10;}
	.st1{fill:none;stroke:#E60012;stroke-width:1.4704;stroke-linecap:round;stroke-linejoin:round;stroke-miterlimit:10;}
	.st2{fill:#E60012;}
</style>
<g>
	<g>
		<polyline class="st0" points="8.1,32.2 8.1,8.7 30.7,8.7 30.7,32.2 23.8,32.2 		"/>
		<polygon class="st0" points="23.8,36.5 8.1,32.2 8.1,8.7 23.8,13 		"/>
		<polyline class="st0" points="13.9,8.7 13.9,4.4 30.7,8.7 		"/>
		<line class="st1" x1="11.6" y1="13.9" x2="20.1" y2="16"/>
		<line class="st1" x1="12.7" y1="17" x2="19" y2="18.6"/>
	</g>
	<path class="st2" d="M20.6,30.5l-2.8-3.3c0.1-0.1,0.1-0.2,0.1-0.2l2.5,0.7l-2.3-1.1c0-0.1,0-0.2,0-0.3l3.4-0.4l-3.4-0.3
		c0-0.1,0-0.2-0.1-0.2l2.3-1.4l-2.5,1c0-0.1-0.1-0.1-0.1-0.2l2.6-3.2l-3,2.8c-0.1,0-0.1-0.1-0.2-0.1l0.7-2.8l-1.1,2.6
		c-0.1,0-0.1,0-0.2,0l-0.4-4.2l-0.3,4.2c-0.1,0-0.2,0-0.2,0l-1.3-2.4l0.9,2.5c-0.1,0-0.2,0.1-0.2,0.1l-3-2.6l2.5,3
		c-0.1,0.1-0.2,0.2-0.2,0.3l-2.4-0.6l2.2,1c0,0.1-0.1,0.2-0.1,0.4L10.2,26l3.6,0.3c0,0.1,0,0.3,0.1,0.4l-2,1.3l2.2-0.9
		c0.1,0.1,0.1,0.2,0.2,0.3l-2.7,3.4l3.2-2.9c0.1,0.1,0.2,0.1,0.3,0.2l-0.6,2.5l1-2.4c0.1,0,0.2,0,0.3,0l0.3,4.7l0.3-4.8
		c0.1,0,0.2-0.1,0.3-0.1l1.3,2.3l-0.9-2.5c0.1,0,0.1-0.1,0.2-0.2L20.6,30.5z"/>
</g>
</svg>
