<?xml version="1.0" encoding="utf-8"?>
<!-- Generator: Adobe Illustrator 25.2.1, SVG Export Plug-In . SVG Version: 6.00 Build 0)  -->
<svg version="1.1" id="Layer_1" xmlns="http://www.w3.org/2000/svg" xmlns:xlink="http://www.w3.org/1999/xlink" x="0px" y="0px" width="40" height="40"
	 viewBox="0 0 40 40" style="enable-background:new 0 0 40 40;" xml:space="preserve">
<style type="text/css">
	.st0{fill:none;stroke:#FFFFFF;stroke-width:1.6076;stroke-linecap:round;stroke-linejoin:round;stroke-miterlimit:10;}
	.st1{fill:#FFFFFF;}
</style>
<g>
	<polygon class="st0" points="21.7,29.2 11.2,29.2 5.6,33.9 5.6,29.2 2.7,29.2 2.7,14.8 21.7,14.8 	"/>
	<polyline class="st0" points="17.1,12.5 17.1,6.8 36.3,6.8 36.3,23 32,23 32,28.1 26.4,23 24.7,23 	"/>
	<g>
		<g>
			<path class="st1" d="M27.2,20.6c-0.2,0-0.5-0.1-0.7-0.2l-0.1,0c-0.3-0.3-0.3-0.4-0.3-0.7c0-0.3,0.1-0.4,0.2-0.6
				c0,0,0-0.1,0.1-0.1l0-0.1c0.3-0.3,0.4-0.3,0.7-0.3c0.2,0,0.5,0.1,0.7,0.2l0.1,0l0,0.1c0.1,0.2,0.2,0.4,0.2,0.7
				c0,0.3-0.1,0.5-0.2,0.7l0,0.1C27.7,20.6,27.5,20.6,27.2,20.6z M26.7,20c0.2,0.1,0.3,0.2,0.5,0.2c0.3,0,0.3,0,0.4-0.1
				c0.1-0.2,0.2-0.3,0.2-0.5c0-0.1-0.1-0.3-0.1-0.4c-0.2-0.1-0.3-0.1-0.5-0.1c-0.3,0-0.3,0-0.4,0.1c0,0,0,0.1,0,0.1
				c-0.1,0.1-0.1,0.2-0.1,0.4C26.6,19.9,26.6,19.9,26.7,20z M27.3,17.9c-0.4,0-0.8-0.2-0.8-0.9c0-0.7,0.1-1.4,0.2-1.8
				c0.1-0.4,0.5-0.9,1-1.4c0.2-0.2,0.4-0.3,0.5-0.4c0.2-0.2,0.4-0.3,0.5-0.4c0.2-0.2,0.3-0.5,0.3-0.8c0-0.4-0.2-0.7-0.5-0.8
				c-0.4-0.2-0.8-0.3-1.2-0.3c-0.7,0-1.2,0.1-1.5,0.4c-0.4,0.3-0.6,0.7-0.6,1.2c0,0.2-0.1,0.4-0.3,0.5c-0.1,0.1-0.3,0.3-0.5,0.3
				c-0.5,0-0.8-0.4-0.8-1c0-0.9,0.4-1.6,1.1-2.3c0.6-0.5,1.6-0.8,2.6-0.8c0.9,0,1.7,0.2,2.3,0.6c0.6,0.5,0.9,1.2,0.9,2.2
				c0,0.5-0.2,1-0.5,1.6c-0.2,0.3-0.5,0.5-0.9,0.9L28.8,15c-0.4,0.3-0.6,0.5-0.6,0.7c-0.1,0.2-0.1,0.7-0.1,1.2
				C28.1,17.5,27.8,17.9,27.3,17.9z M27.4,10.7c0.5,0,0.9,0.1,1.4,0.3c0.4,0.2,0.7,0.7,0.7,1.2c0,0.5-0.1,0.8-0.5,1.1l-0.1,0
				c-0.1,0.1-0.3,0.2-0.5,0.4c-0.1,0.1-0.3,0.3-0.5,0.4c-0.5,0.5-0.8,0.8-0.9,1.2c-0.1,0.3-0.2,0.9-0.2,1.7c0,0.4,0.1,0.5,0.4,0.5
				c0.1,0,0.4,0,0.4-0.6c0-0.7,0-1.2,0.1-1.4c0.1-0.3,0.4-0.6,0.8-0.9l0.3-0.2c0.4-0.3,0.7-0.6,0.9-0.8c0.3-0.5,0.5-1,0.5-1.4
				c0-0.8-0.3-1.5-0.7-1.8c-0.6-0.4-1.2-0.6-2.1-0.6c-0.9,0-1.8,0.3-2.4,0.8c-0.6,0.5-0.9,1.2-0.9,1.9c0,0.6,0.3,0.6,0.4,0.6
				c0.1,0,0.2,0,0.3-0.1c0.1-0.1,0.1-0.2,0.1-0.3c0-0.7,0.3-1.3,0.8-1.6C26.1,10.8,26.6,10.7,27.4,10.7z"/>
		</g>
	</g>
	<g>
		<g>
			<path class="st1" d="M30.4,12.2c0,0.5-0.2,1-0.5,1.5c-0.2,0.3-0.6,0.6-1.2,1.1c-0.4,0.3-0.6,0.5-0.7,0.8
				c-0.1,0.2-0.1,0.7-0.1,1.3c0,0.5-0.2,0.8-0.6,0.8s-0.6-0.2-0.6-0.7c0-0.8,0.1-1.4,0.2-1.7c0.1-0.4,0.5-0.8,1-1.3
				c0.5-0.4,0.8-0.7,1-0.8c0.3-0.3,0.4-0.6,0.4-1s-0.2-0.8-0.6-1s-0.8-0.3-1.3-0.3c-0.6,0-1.2,0.1-1.6,0.4c-0.5,0.3-0.7,0.8-0.7,1.4
				c0,0.1-0.1,0.3-0.2,0.4c-0.1,0.1-0.2,0.2-0.4,0.2c-0.4,0-0.6-0.3-0.6-0.8c0-0.8,0.3-1.5,1-2.1c0.6-0.5,1.5-0.8,2.5-0.8
				c0.9,0,1.6,0.2,2.2,0.6C30.1,10.6,30.4,11.3,30.4,12.2z M28,19.6c0,0.2-0.1,0.4-0.2,0.6c-0.2,0.2-0.3,0.2-0.6,0.2
				c-0.2,0-0.4-0.1-0.6-0.2c-0.2-0.2-0.2-0.3-0.2-0.6s0.1-0.4,0.2-0.6c0.2-0.2,0.3-0.2,0.6-0.2c0.2,0,0.4,0.1,0.6,0.2
				C27.9,19.2,28,19.4,28,19.6z"/>
		</g>
	</g>
</g>
<line class="st0" x1="7.4" y1="20.4" x2="17.7" y2="20.4"/>
<line class="st0" x1="7.4" y1="24.4" x2="15.3" y2="24.4"/>
</svg>
