<?xml version="1.0" encoding="utf-8"?>
<!-- Generator: Adobe Illustrator 25.2.1, SVG Export Plug-In . SVG Version: 6.00 Build 0)  -->
<svg version="1.1" id="Layer_1" xmlns="http://www.w3.org/2000/svg" xmlns:xlink="http://www.w3.org/1999/xlink" x="0px" y="0px" width="40px" height="40px"
	 viewBox="0 0 40 40" style="enable-background:new 0 0 40 40;" xml:space="preserve">
<style type="text/css">
	.st0{fill:none;stroke:#808080;stroke-width:1.7;stroke-linecap:round;stroke-linejoin:round;stroke-miterlimit:10;}
	.st1{fill:none;stroke:#E60012;stroke-width:1.7;stroke-linecap:round;stroke-linejoin:round;stroke-miterlimit:10;}
</style>
<g>
	<g>
		<circle class="st0" cx="8.4" cy="10.4" r="2.9"/>
		<path class="st0" d="M12.6,18.3c-0.6-2.6-1.5-4.1-4.1-4.1c-2.5,0-3.7,1.6-4.1,4.1l-0.6,3.5"/>
	</g>
	<g>
		<circle class="st0" cx="31.9" cy="10.4" r="2.9"/>
		<path class="st0" d="M27.8,18.3c0.6-2.6,1.5-4.1,4.1-4.1c2.5,0,3.7,1.6,4.1,4.1l0.6,3.5"/>
	</g>
	<g>
		<circle class="st0" cx="20.1" cy="7.1" r="3.2"/>
		<path class="st0" d="M14.5,20.9l1-5c0.5-2.8,1.8-4.6,4.6-4.6c2.9,0,4,1.8,4.6,4.6l1.2,4.9"/>
	</g>
</g>
<polyline class="st0" points="31.7,25.3 37.6,25.3 34.7,28.5 37.6,31.7 27.3,31.7 "/>
<polyline class="st0" points="12.9,31.7 2.4,31.7 5.3,28.5 2.4,25.3 8.4,25.3 "/>
<polygon class="st1" points="23,24.1 29.3,25.1 24.7,29.5 25.7,35.7 20.1,32.8 14.5,35.7 15.6,29.4 11.1,25 17.4,24.1 20.2,18.4 "/>
</svg>
