<?xml version="1.0" encoding="utf-8"?>
<!-- Generator: Adobe Illustrator 25.2.1, SVG Export Plug-In . SVG Version: 6.00 Build 0)  -->
<svg version="1.1" id="Layer_1" xmlns="http://www.w3.org/2000/svg" xmlns:xlink="http://www.w3.org/1999/xlink" x="0px" y="0px" width="40" height="40"
	 viewBox="0 0 40 40" style="enable-background:new 0 0 40 40;" xml:space="preserve">
<style type="text/css">
	.st0{fill:none;stroke:#FFFFFF;stroke-width:1.5245;stroke-linecap:round;stroke-linejoin:round;stroke-miterlimit:10;}
</style>
<g>
	<rect x="30.7" y="19.4" class="st0" width="4.5" height="16.2"/>
	<rect x="23.5" y="26.7" class="st0" width="4.5" height="8.8"/>
	<line class="st0" x1="16.7" y1="35.6" x2="20.8" y2="35.6"/>
	<polygon class="st0" points="32.9,3.8 34.6,7.2 38.2,7.7 35.6,10.3 36.2,13.9 32.9,12.2 29.7,13.9 30.3,10.3 27.7,7.7 31.3,7.2 	
		"/>
	<circle class="st0" cx="17.4" cy="8.5" r="2.6"/>
	<path class="st0" d="M24,21.3c0.8,0,1.4-0.6,1.4-1.4s-0.6-1.4-1.4-1.4h-2.8c0,0-1.6-0.2-3.1-2.3l-1.4-1.8c0,0-1.7-2.7-4.7-2.7H9.5
		c0,0-1.8,0-2.8,1.1l-4.2,4.7C2,18.2,2,19,2.5,19.6c0.5,0.5,1.4,0.5,1.9,0l3.4-4c0,0,1.4-1.5,2.9-0.4l-2.6,3.5c0,0-1.7,2.5,1.1,4
		l6.8,3.7c0,0,1.2,0.5,1.2,4.9c0,0.8,0.7,1.5,1.5,1.5s1.5-0.7,1.5-1.5v-1.9c0,0,0.1-3.3-1.5-4.8l-4.2-2.9l1.7-2.6l2,1.5
		c0,0,1,0.9,3,0.9L24,21.3z"/>
	<path class="st0" d="M10.3,23.2c-2.2,3.5-7.1,6.9-7.1,6.9c-0.6,0.6-0.6,1.5,0,2.1s1.5,0.6,2.1,0c0,0,3.6-2.4,7.7-7.6"/>
</g>
</svg>
