<?xml version="1.0" encoding="utf-8"?>
<!-- Generator: Adobe Illustrator 25.2.1, SVG Export Plug-In . SVG Version: 6.00 Build 0)  -->
<svg version="1.1" id="Layer_1" xmlns="http://www.w3.org/2000/svg" xmlns:xlink="http://www.w3.org/1999/xlink" x="0px" y="0px" width="40" height="40"
	 viewBox="0 0 40 40" style="enable-background:new 0 0 40 40;" xml:space="preserve">
<style type="text/css">
	.st0{fill:none;stroke:#FFFFFF;stroke-width:1.7829;stroke-linecap:round;stroke-linejoin:round;stroke-miterlimit:10;}
	.st1{fill:#A9A9A9;stroke:#FFFFFF;stroke-width:1.3372;stroke-linecap:round;stroke-linejoin:round;stroke-miterlimit:10;}
</style>
<g>
	<polyline class="st0" points="3.5,7.5 18.4,20.2 33.4,7.5 	"/>
	<line class="st0" x1="3.5" y1="28.5" x2="11.4" y2="20.2"/>
	<line class="st0" x1="31.7" y1="28.5" x2="23.7" y2="20.2"/>
	<path class="st0" d="M31.3,29.4H5.5c-1.7,0-3.2-1.4-3.2-3.2V9.8c0-1.7,1.4-3.2,3.2-3.2h25.8c1.7,0,3.2,1.4,3.2,3.2v16.4
		C34.5,27.9,33.1,29.4,31.3,29.4z"/>
</g>
<polygon class="st1" points="38.2,24.9 31.2,24.9 31.2,20.1 22.8,27.9 31.2,35.7 31.2,31 38.2,31 "/>
</svg>
