<?xml version="1.0" encoding="utf-8"?>
<!-- Generator: Adobe Illustrator 25.2.1, SVG Export Plug-In . SVG Version: 6.00 Build 0)  -->
<svg version="1.1" id="Layer_1" xmlns="http://www.w3.org/2000/svg" xmlns:xlink="http://www.w3.org/1999/xlink" x="0px" y="0px" width="40" height="40"
	 viewBox="0 0 40 40" style="enable-background:new 0 0 40 40;" xml:space="preserve">
<style type="text/css">
	.st0{fill:none;stroke:#808080;stroke-width:1.5546;stroke-linecap:round;stroke-linejoin:round;stroke-miterlimit:10;}
	.st1{fill:none;stroke:#E60012;stroke-width:1.5546;stroke-linecap:round;stroke-linejoin:round;stroke-miterlimit:10;}
</style>
<g>
	<g>
		<circle class="st0" cx="13.6" cy="6.8" r="2.8"/>
		<path class="st0" d="M7.9,24.1c-0.4-0.6-0.6-1.2-0.6-1.9v-6.3c0-1.9,1.5-3.4,3.4-3.4h5.8c1.9,0,3.4,1.5,3.4,3.4v6.3
			c0,1.4-0.9,2.7-2.2,3.2"/>
		<g>
			<polyline class="st0" points="17,18 17,36.3 10.2,36.3 10.2,33.6 			"/>
			<line class="st0" x1="10.2" y1="18" x2="10.2" y2="24.5"/>
			<line class="st0" x1="13.6" y1="26.4" x2="13.6" y2="36.3"/>
		</g>
	</g>
	<path class="st1" d="M20.7,8.6c5.1-3.1,11.8-1.4,14.8,3.8s1.4,11.8-3.8,14.8c-3.4,2-7.4,2-10.6,0.3"/>
	<rect x="3.1" y="24.5" class="st0" width="8.4" height="6.6"/>
	<polygon class="st1" points="22.3,17.9 24,16.3 25.5,17.9 30.2,13.6 32,15.5 25.8,21.5 	"/>
</g>
</svg>
