<?xml version="1.0" encoding="utf-8"?>
<!-- Generator: Adobe Illustrator 25.2.1, SVG Export Plug-In . SVG Version: 6.00 Build 0)  -->
<svg version="1.1" id="Layer_1" xmlns="http://www.w3.org/2000/svg" xmlns:xlink="http://www.w3.org/1999/xlink" x="0px" y="0px" width="40" height="40"
	 viewBox="0 0 40 40" style="enable-background:new 0 0 40 40;" xml:space="preserve">
<style type="text/css">
	.st0{fill:none;stroke:#FFFFFF;stroke-width:1.5208;stroke-linecap:round;stroke-linejoin:round;stroke-miterlimit:10;}
</style>
<g>
	<g>
		<circle class="st0" cx="8.5" cy="10.3" r="2.9"/>
		<path class="st0" d="M12.6,18.2C12,15.6,11.3,14,8.4,14c-2.5,0-3.8,1.6-4.2,4.2l-0.6,3.6"/>
	</g>
	<g>
		<circle class="st0" cx="32.2" cy="10.3" r="2.9"/>
		<path class="st0" d="M28,18.2c0.6-2.6,1.3-4.2,4.2-4.2c2.5,0,3.8,1.6,4.2,4.2l0.6,3.6"/>
	</g>
	<g>
		<circle class="st0" cx="20.3" cy="6.9" r="3.2"/>
		<path class="st0" d="M15,18l0.5-2.4c0.8-2.9,1.7-4.5,4.7-4.5c3.2,0,4.2,1.7,4.8,4.6l0.5,2.4"/>
	</g>
</g>
<g>
	<path class="st0" d="M5.1,34.4c0.2-8.2,7-14.8,15.2-14.8s14.9,6.5,15.2,14.6"/>
	<path class="st0" d="M20.3,34.3V19.6c0,0-7.5,1.1-7.7,14.7"/>
	<path class="st0" d="M20.3,19.6c0,0,7.5,1.1,7.7,14.7"/>
	<path class="st0" d="M9,25.1c0,0,11.3,5.5,22.7,0"/>
	<line class="st0" x1="2.9" y1="34.7" x2="37.8" y2="34.7"/>
</g>
</svg>
