<?xml version="1.0" encoding="utf-8"?>
<!-- Generator: Adobe Illustrator 25.2.1, SVG Export Plug-In . SVG Version: 6.00 Build 0)  -->
<svg version="1.1" id="Layer_1" xmlns="http://www.w3.org/2000/svg" xmlns:xlink="http://www.w3.org/1999/xlink" x="0px" y="0px" width="40" height="40"
	 viewBox="0 0 40 40" style="enable-background:new 0 0 40 40;" xml:space="preserve">
<style type="text/css">
	.st0{fill:none;stroke:#FFFFFF;stroke-width:1.6;stroke-linecap:round;stroke-linejoin:round;stroke-miterlimit:10;}
</style>
<g>
	<path class="st0" d="M10,34.6H4.7c-1.1,0-2-0.9-2-2v-25c0-1.1,0.9-2,2-2h26.2c1.1,0,2,0.9,2,2v4.2"/>
	<path class="st0" d="M35.9,11.8H20.5c-1.1,0-2,0.9-2,2l-0.8,4.4h-7.3c-1.1,0-2,0.9-2,2v12.5c0,1.1,0.9,2,2,2h10h15.4
		c1.1,0,2-0.9,2-2V20.2v-6.4C37.9,12.7,37,11.8,35.9,11.8z"/>
	<line class="st0" x1="7.3" y1="11.2" x2="15" y2="11.2"/>
	<line class="st0" x1="7.3" y1="14.9" x2="13.8" y2="14.9"/>
	<circle class="st0" cx="26" cy="21.2" r="3.8"/>
	<path class="st0" d="M19.8,31.1c0-3.4,2.8-6.2,6.2-6.2s6.2,2.8,6.2,6.2"/>
</g>
</svg>
