<?xml version="1.0" encoding="utf-8"?>
<!-- Generator: Adobe Illustrator 25.2.1, SVG Export Plug-In . SVG Version: 6.00 Build 0)  -->
<svg version="1.1" id="Layer_1" xmlns="http://www.w3.org/2000/svg" xmlns:xlink="http://www.w3.org/1999/xlink" x="0px" y="0px" width="40px" height="40px"
	 viewBox="0 0 40 40" style="enable-background:new 0 0 40 40;" xml:space="preserve">
<style type="text/css">
	.st0{fill:none;stroke:#808080;stroke-width:1.6668;stroke-linecap:round;stroke-linejoin:round;stroke-miterlimit:10;}
	.st1{fill:none;stroke:#E60012;stroke-width:0.4167;stroke-miterlimit:10;}
	.st2{fill:#E60012;}
	.st3{fill:none;stroke:#E60012;stroke-width:1.6668;stroke-linecap:round;stroke-linejoin:round;stroke-miterlimit:10;}
</style>
<polygon class="st0" points="22.5,29.5 11.6,29.5 5.8,34.4 5.7,29.5 2.8,29.5 2.8,14.6 22.5,14.6 "/>
<polyline class="st0" points="17.7,12.2 17.7,6.3 37.7,6.3 37.7,23.1 33.2,23.1 33.2,28.3 27.3,23.1 25.5,23.1 "/>
<g>
	<path class="st1" d="M31.6,11.9c0,0.6-0.2,1.1-0.6,1.5c-0.2,0.3-0.7,0.7-1.3,1.1c-0.4,0.3-0.6,0.6-0.8,0.9
		c-0.1,0.3-0.1,0.7-0.1,1.3c0,0.6-0.2,0.8-0.7,0.8c-0.4,0-0.6-0.2-0.6-0.7c0-0.9,0.1-1.5,0.2-1.8c0.1-0.4,0.5-0.9,1.1-1.3
		c0.5-0.4,0.8-0.7,1-0.9c0.3-0.3,0.4-0.6,0.4-1c0-0.5-0.2-0.8-0.7-1.1c-0.4-0.2-0.8-0.3-1.3-0.3c-0.7,0-1.2,0.1-1.6,0.4
		c-0.5,0.3-0.7,0.8-0.7,1.5c0,0.1-0.1,0.3-0.2,0.4C25.6,13,25.4,13,25.3,13c-0.4,0-0.7-0.3-0.7-0.8c0-0.9,0.3-1.6,1-2.2
		c0.7-0.5,1.5-0.8,2.5-0.8c0.9,0,1.7,0.2,2.3,0.6C31.2,10.3,31.6,11,31.6,11.9z M29,19.6c0,0.2-0.1,0.4-0.2,0.6
		c-0.2,0.2-0.3,0.2-0.6,0.2c-0.2,0-0.4-0.1-0.6-0.2c-0.2-0.2-0.2-0.3-0.2-0.6c0-0.2,0.1-0.4,0.2-0.6c0.2-0.2,0.3-0.2,0.6-0.2
		c0.2,0,0.4,0.1,0.6,0.2C28.9,19.2,29,19.4,29,19.6z"/>
</g>
<g>
	<path class="st2" d="M31.6,11.9c0,0.6-0.2,1.1-0.6,1.5c-0.2,0.3-0.7,0.7-1.3,1.1c-0.4,0.3-0.6,0.6-0.8,0.9
		c-0.1,0.3-0.1,0.7-0.1,1.3c0,0.6-0.2,0.8-0.7,0.8c-0.4,0-0.6-0.2-0.6-0.7c0-0.9,0.1-1.5,0.2-1.8c0.1-0.4,0.5-0.9,1.1-1.3
		c0.5-0.4,0.8-0.7,1-0.9c0.3-0.3,0.4-0.6,0.4-1c0-0.5-0.2-0.8-0.7-1.1c-0.4-0.2-0.8-0.3-1.3-0.3c-0.7,0-1.2,0.1-1.6,0.4
		c-0.5,0.3-0.7,0.8-0.7,1.5c0,0.1-0.1,0.3-0.2,0.4C25.6,13,25.4,13,25.3,13c-0.4,0-0.7-0.3-0.7-0.8c0-0.9,0.3-1.6,1-2.2
		c0.7-0.5,1.5-0.8,2.5-0.8c0.9,0,1.7,0.2,2.3,0.6C31.2,10.3,31.6,11,31.6,11.9z M29,19.6c0,0.2-0.1,0.4-0.2,0.6
		c-0.2,0.2-0.3,0.2-0.6,0.2c-0.2,0-0.4-0.1-0.6-0.2c-0.2-0.2-0.2-0.3-0.2-0.6c0-0.2,0.1-0.4,0.2-0.6c0.2-0.2,0.3-0.2,0.6-0.2
		c0.2,0,0.4,0.1,0.6,0.2C28.9,19.2,29,19.4,29,19.6z"/>
</g>
<line class="st3" x1="7.6" y1="20.4" x2="18.3" y2="20.4"/>
<line class="st3" x1="7.6" y1="24.5" x2="15.9" y2="24.5"/>
</svg>
