<?xml version="1.0" encoding="utf-8"?>
<!-- Generator: Adobe Illustrator 25.2.1, SVG Export Plug-In . SVG Version: 6.00 Build 0)  -->
<svg version="1.1" id="Layer_1" xmlns="http://www.w3.org/2000/svg" xmlns:xlink="http://www.w3.org/1999/xlink" x="0px" y="0px" width="40" height="40"
	 viewBox="0 0 40 40" style="enable-background:new 0 0 40 40;" xml:space="preserve">
<style type="text/css">
	.st0{fill:none;stroke:#FFFFFF;stroke-width:1.6668;stroke-linecap:round;stroke-linejoin:round;stroke-miterlimit:10;}
	.st1{fill:#FFFFFF;}
</style>
<polygon class="st0" points="22.5,29.5 11.6,29.5 5.8,34.4 5.7,29.5 2.8,29.5 2.8,14.6 22.5,14.6 "/>
<polyline class="st0" points="17.7,12.2 17.7,6.3 37.7,6.3 37.7,23.1 33.2,23.1 33.2,28.3 27.3,23.1 25.5,23.1 "/>
<g>
	<g>
		<path class="st1" d="M28.2,20.6c-0.2,0-0.5-0.1-0.7-0.2l-0.1,0c-0.3-0.3-0.3-0.4-0.3-0.7c0-0.2,0.1-0.5,0.2-0.7l0-0.1
			c0.3-0.3,0.4-0.3,0.7-0.3c0.2,0,0.5,0.1,0.7,0.2l0.1,0l0,0.1c0.1,0.2,0.2,0.4,0.2,0.7c0,0.3-0.1,0.5-0.2,0.7l0,0.1
			C28.7,20.6,28.5,20.6,28.2,20.6z M27.7,20c0.2,0.1,0.3,0.2,0.5,0.2c0.3,0,0.3,0,0.4-0.1c0.1-0.2,0.2-0.3,0.2-0.5
			c0-0.1-0.1-0.3-0.1-0.4c-0.2-0.1-0.3-0.1-0.4-0.1c-0.3,0-0.3,0-0.4,0.1c-0.1,0.2-0.2,0.3-0.2,0.5C27.6,19.9,27.6,19.9,27.7,20z
			 M28.1,17.7c-0.4,0-0.8-0.2-0.8-0.9c0-1.1,0.1-1.7,0.2-1.9c0.1-0.5,0.6-1,1.2-1.4c0.5-0.4,0.8-0.7,1-0.9c0.2-0.2,0.3-0.5,0.3-0.9
			c0-0.4-0.2-0.7-0.6-0.9c-0.4-0.2-0.7-0.3-1.2-0.3c-0.7,0-1.1,0.1-1.5,0.4c-0.4,0.3-0.6,0.7-0.6,1.3c0,0.2-0.1,0.4-0.2,0.5
			c-0.2,0.4-0.5,0.4-0.6,0.4c-0.5,0-0.9-0.4-0.9-1c0-1,0.3-1.7,1.1-2.4C26.3,9.3,27.1,9,28.1,9c1,0,1.8,0.2,2.4,0.6
			c0.9,0.5,1.3,1.3,1.3,2.3c0,0.7-0.2,1.2-0.7,1.6c-0.2,0.3-0.6,0.7-1.3,1.1c-0.4,0.3-0.5,0.5-0.7,0.8C29,15.8,29,16.1,29,16.7
			C29,17.4,28.7,17.7,28.1,17.7z M28.2,10.2c0.5,0,0.9,0.1,1.4,0.3c0.6,0.3,0.8,0.7,0.8,1.3c0,0.5-0.1,0.8-0.5,1.1
			c-0.2,0.2-0.5,0.5-1,0.9c-0.5,0.4-0.9,0.8-1,1.2c0,0.1-0.2,0.7-0.2,1.7c0,0.5,0.2,0.5,0.4,0.5c0.3,0,0.5-0.1,0.5-0.6
			c0-0.6,0-1,0.1-1.4l0,0c0.2-0.3,0.4-0.6,0.8-1c0.6-0.4,1.1-0.8,1.3-1c0.4-0.4,0.6-0.8,0.6-1.4c0-0.8-0.4-1.5-1.1-1.9
			c-0.6-0.4-1.3-0.6-2.2-0.6c-0.9,0-1.7,0.2-2.4,0.8c-0.6,0.5-0.9,1.2-0.9,2c0,0.4,0.2,0.6,0.5,0.6c0.1,0,0.1,0,0.2-0.2l0-0.1
			c0.1-0.1,0.1-0.2,0.1-0.3c0-0.8,0.3-1.4,0.8-1.7C26.9,10.3,27.4,10.2,28.2,10.2z"/>
	</g>
</g>
<g>
	<g>
		<path class="st1" d="M31.6,11.9c0,0.6-0.2,1.1-0.6,1.5c-0.2,0.3-0.7,0.7-1.3,1.1c-0.4,0.3-0.6,0.6-0.8,0.9
			c-0.1,0.3-0.1,0.7-0.1,1.3c0,0.6-0.2,0.8-0.7,0.8c-0.4,0-0.6-0.2-0.6-0.7c0-0.9,0.1-1.5,0.2-1.8c0.1-0.4,0.5-0.9,1.1-1.3
			c0.5-0.4,0.8-0.7,1-0.9c0.3-0.3,0.4-0.6,0.4-1c0-0.5-0.2-0.8-0.7-1.1c-0.4-0.2-0.8-0.3-1.3-0.3c-0.7,0-1.2,0.1-1.6,0.4
			c-0.5,0.3-0.7,0.8-0.7,1.5c0,0.1-0.1,0.3-0.2,0.4C25.6,13,25.4,13,25.3,13c-0.4,0-0.7-0.3-0.7-0.8c0-0.9,0.3-1.6,1-2.2
			c0.7-0.5,1.5-0.8,2.5-0.8c0.9,0,1.7,0.2,2.3,0.6C31.2,10.3,31.6,11,31.6,11.9z M29,19.6c0,0.2-0.1,0.4-0.2,0.6
			c-0.2,0.2-0.3,0.2-0.6,0.2c-0.2,0-0.4-0.1-0.6-0.2c-0.2-0.2-0.2-0.3-0.2-0.6c0-0.2,0.1-0.4,0.2-0.6c0.2-0.2,0.3-0.2,0.6-0.2
			c0.2,0,0.4,0.1,0.6,0.2C28.9,19.2,29,19.4,29,19.6z"/>
	</g>
</g>
<line class="st0" x1="7.6" y1="20.4" x2="18.3" y2="20.4"/>
<line class="st0" x1="7.6" y1="24.5" x2="15.9" y2="24.5"/>
</svg>
