<?xml version="1.0" encoding="utf-8"?>
<!-- Generator: Adobe Illustrator 25.2.1, SVG Export Plug-In . SVG Version: 6.00 Build 0)  -->
<svg version="1.1" id="Layer_1" xmlns="http://www.w3.org/2000/svg" xmlns:xlink="http://www.w3.org/1999/xlink" x="0px" y="0px" width="40" height="40"
	 viewBox="0 0 40 40" style="enable-background:new 0 0 40 40;" xml:space="preserve">
<style type="text/css">
	.st0{fill:none;stroke:#FFFFFF;stroke-width:1.7;stroke-linecap:round;stroke-linejoin:round;stroke-miterlimit:10;}
</style>
<g>
	<g>
		<circle class="st0" cx="9.3" cy="15.9" r="3"/>
		<path class="st0" d="M23.8,25"/>
		<path class="st0" d="M2.6,33.9V25c0-2,1.6-3.6,3.6-3.6h6.2c2,0,3.6,1.6,3.6,3.6v1l3.6,1.6l4.2-1.4V25"/>
		<g>
			<line class="st0" x1="12.9" y1="33.9" x2="12.9" y2="26"/>
			<line class="st0" x1="5.7" y1="26" x2="5.7" y2="33.9"/>
		</g>
	</g>
	<g>
		<circle class="st0" cx="30.6" cy="15.9" r="3"/>
		<path class="st0" d="M23.8,25c0-2,1.6-3.6,3.6-3.6h6.2c2,0,3.6,1.6,3.6,3.6v8.8"/>
		<g>
			<line class="st0" x1="34.2" y1="33.9" x2="34.2" y2="26"/>
			<line class="st0" x1="27" y1="26" x2="27" y2="33.9"/>
		</g>
	</g>
	<polyline class="st0" points="13.2,29.1 19.7,31.7 26.3,29.5 	"/>
	<polygon class="st0" points="13.3,10.1 16,7.6 19.3,10.7 27,3.4 30.1,6.3 19.8,16.2 	"/>
</g>
</svg>
