<?xml version="1.0" encoding="utf-8"?>
<!-- Generator: Adobe Illustrator 25.2.1, SVG Export Plug-In . SVG Version: 6.00 Build 0)  -->
<svg version="1.1" id="Layer_1" xmlns="http://www.w3.org/2000/svg" xmlns:xlink="http://www.w3.org/1999/xlink" x="0px" y="0px" width="40px" height="40px"
	 viewBox="0 0 40 40" style="enable-background:new 0 0 40 40;" xml:space="preserve">
<style type="text/css">
	.st0{fill:none;stroke:#808080;stroke-width:1.6318;stroke-linecap:round;stroke-linejoin:round;stroke-miterlimit:10;}
	.st1{fill:none;stroke:#E60012;stroke-width:1.2239;stroke-linecap:round;stroke-linejoin:round;stroke-miterlimit:10;}
	.st2{fill:none;stroke:#808080;stroke-width:1.7;stroke-linecap:round;stroke-linejoin:round;stroke-miterlimit:10;}
</style>
<g>
	<g>
		<g>
			<polyline class="st0" points="32.7,11.8 25.8,11.8 25.8,4.9 29.3,4.9 			"/>
			<polyline class="st1" points="28.2,7.5 29.9,9.2 33.6,4.5 			"/>
		</g>
		<g>
			<polyline class="st0" points="32.7,24 25.8,24 25.8,17.1 29.3,17.1 			"/>
			<polyline class="st1" points="28.2,19.7 29.9,21.4 33.6,16.7 			"/>
		</g>
		<g>
			<polyline class="st0" points="32.7,36.2 25.8,36.2 25.8,29.3 29.3,29.3 			"/>
			<polyline class="st1" points="28.2,31.9 29.9,33.6 33.6,28.9 			"/>
		</g>
	</g>
	<g>
		<circle class="st2" cx="14" cy="6.9" r="2.8"/>
		<path class="st2" d="M10.1,25.7c-1.4-0.4-2.5-1.8-2.5-3.3v-6.3c0-1.9,1.6-3.5,3.5-3.5H17c1.9,0,3.5,1.6,3.5,3.5v6.3
			c0,1.5-0.9,2.7-2.2,3.2"/>
		<g>
			<polyline class="st2" points="10.6,18.2 10.6,36.7 17.4,36.7 17.4,18.2 			"/>
			<line class="st2" x1="14" y1="26.7" x2="14" y2="36.7"/>
		</g>
	</g>
</g>
</svg>
