<?xml version="1.0" encoding="utf-8"?>
<!-- Generator: Adobe Illustrator 25.2.1, SVG Export Plug-In . SVG Version: 6.00 Build 0)  -->
<svg version="1.1" id="Layer_1" xmlns="http://www.w3.org/2000/svg" xmlns:xlink="http://www.w3.org/1999/xlink" x="0px" y="0px" width="40px" height="40px"
	 viewBox="0 0 40 40" style="enable-background:new 0 0 40 40;" xml:space="preserve">
<style type="text/css">
	.st0{fill:none;stroke:#808080;stroke-width:1.7;stroke-linejoin:round;stroke-miterlimit:10;}
	.st1{fill:none;stroke:#E60012;stroke-width:1.7;stroke-linecap:round;stroke-linejoin:round;stroke-miterlimit:10;}
</style>
<g>
	<path class="st0" d="M14.4,23.1c-6.7,0-7.2,3.8-7.2,3.8l-3.7-4.3c-1.3-1.7-2-3.7-2-6c0-5.5,4.5-10,10-10c3.5,0,6.6,1.8,8.4,4.6
		c1.8-2.8,4.9-4.6,8.4-4.6c5.5,0,10,4.5,10,10c0,2.3-0.7,4.3-2,6l-3.7,4.3c0,0-0.5-2.9-8.3-2.9"/>
	<circle class="st1" cx="12.5" cy="16.1" r="4.4"/>
	<circle class="st1" cx="26.8" cy="17.4" r="3.9"/>
	<path class="st0" d="M14,33.8c0-2.8,2.3-5.1,5.1-5.1s5.1,2.3,5.1,5.1"/>
	<circle class="st1" cx="19.1" cy="24.3" r="3"/>
</g>
</svg>
