<?xml version="1.0" encoding="utf-8"?>
<!-- Generator: Adobe Illustrator 25.2.1, SVG Export Plug-In . SVG Version: 6.00 Build 0)  -->
<svg version="1.1" id="Layer_1" xmlns="http://www.w3.org/2000/svg" xmlns:xlink="http://www.w3.org/1999/xlink" x="0px" y="0px" width="40" height="40"
	 viewBox="0 0 40 40" style="enable-background:new 0 0 40 40;" xml:space="preserve">
<style type="text/css">
	.st0{fill:none;stroke:#FFFFFF;stroke-width:1.7;stroke-linecap:round;stroke-linejoin:round;stroke-miterlimit:10;}
	.st1{fill:#FFFFFF;}
</style>
<g>
	<line class="st0" x1="2.8" y1="35.1" x2="36.5" y2="35.1"/>
	<rect x="31.5" y="13.4" class="st0" width="5.4" height="17.1"/>
	<rect x="22.6" y="20.5" class="st0" width="5.4" height="10"/>
	<rect x="5" y="25" class="st0" width="5.4" height="5.6"/>
	<rect x="13.8" y="17.6" class="st0" width="5.4" height="13"/>
	<g>
		<circle class="st1" cx="2.6" cy="5.7" r="0.8"/>
		<circle class="st1" cx="2.6" cy="8.9" r="0.8"/>
		<circle class="st1" cx="2.6" cy="12.2" r="0.8"/>
		<circle class="st1" cx="2.6" cy="15.5" r="0.8"/>
		<circle class="st1" cx="2.6" cy="18.8" r="0.8"/>
		<circle class="st1" cx="2.6" cy="22.1" r="0.8"/>
		<circle class="st1" cx="2.6" cy="25.3" r="0.8"/>
		<circle class="st1" cx="2.6" cy="28.6" r="0.8"/>
		<circle class="st1" cx="2.6" cy="31.9" r="0.8"/>
	</g>
	<circle class="st0" cx="8" cy="18.1" r="2.2"/>
	<circle class="st0" cx="16.8" cy="10.9" r="2.2"/>
	<circle class="st0" cx="25.4" cy="13.8" r="2.2"/>
	<circle class="st0" cx="34.3" cy="6.7" r="2.2"/>
	<line class="st0" x1="9.8" y1="16.8" x2="14.8" y2="12.7"/>
	<line class="st0" x1="19.2" y1="11.7" x2="22.9" y2="13.1"/>
	<line class="st0" x1="27.5" y1="12.4" x2="32.6" y2="8.2"/>
</g>
</svg>
