<?xml version="1.0" encoding="utf-8"?>
<!-- Generator: Adobe Illustrator 25.2.1, SVG Export Plug-In . SVG Version: 6.00 Build 0)  -->
<svg version="1.1" id="Layer_1" xmlns="http://www.w3.org/2000/svg" xmlns:xlink="http://www.w3.org/1999/xlink" x="0px" y="0px" width="40px" height="40px"
	 viewBox="0 0 40 40" style="enable-background:new 0 0 40 40;" xml:space="preserve">
<style type="text/css">
	.st0{fill:none;stroke:#808080;stroke-width:1.7;stroke-linecap:round;stroke-linejoin:round;stroke-miterlimit:10;}
	.st1{fill:none;stroke:#E60012;stroke-width:1.7;stroke-linecap:round;stroke-linejoin:round;stroke-miterlimit:10;}
</style>
<g>
	<g>
		<g>
			<circle class="st0" cx="27.3" cy="13.9" r="6.2"/>
			<g>
				<line class="st0" x1="27.3" y1="3.1" x2="27.3" y2="4.7"/>
				<line class="st0" x1="27.3" y1="23" x2="27.3" y2="24.6"/>
			</g>
			<g>
				<line class="st0" x1="38" y1="13.9" x2="36.5" y2="13.9"/>
				<line class="st0" x1="18.1" y1="13.9" x2="16.5" y2="13.9"/>
			</g>
			<g>
				<line class="st0" x1="23.2" y1="3.9" x2="23.8" y2="5.4"/>
				<line class="st0" x1="30.8" y1="22.4" x2="31.3" y2="23.8"/>
			</g>
			<g>
				<line class="st0" x1="37.2" y1="9.8" x2="35.8" y2="10.4"/>
				<line class="st0" x1="18.8" y1="17.3" x2="17.3" y2="17.9"/>
			</g>
			<g>
				<line class="st0" x1="19.6" y1="6.3" x2="20.7" y2="7.4"/>
				<line class="st0" x1="33.8" y1="20.3" x2="34.9" y2="21.4"/>
			</g>
			<g>
				<line class="st0" x1="34.8" y1="6.2" x2="33.7" y2="7.3"/>
				<line class="st0" x1="20.8" y1="20.4" x2="19.7" y2="21.5"/>
			</g>
			<g>
				<line class="st0" x1="17.3" y1="9.7" x2="18.8" y2="10.3"/>
				<line class="st0" x1="35.8" y1="17.4" x2="37.2" y2="18"/>
			</g>
			<g>
				<line class="st0" x1="31.4" y1="3.9" x2="30.8" y2="5.4"/>
				<line class="st0" x1="23.7" y1="22.3" x2="23.1" y2="23.8"/>
			</g>
		</g>
		<path class="st0" d="M2.1,11.3c0,0,3.8,0.1,4.4,2.7c0,0,1.2-2.9,4.6-2.7"/>
		<path class="st0" d="M7.2,19.2c0,0,2.4,0.1,2.7,2.2c0,0,0.8-2.3,2.9-2.2"/>
	</g>
	<g>
		<path class="st1" d="M11.1,27.8c-0.3,1.4-1.5,2.4-3,2.4c-1.4,0-2.6-1-2.9-2.3"/>
		<path class="st1" d="M17,27.8c-0.3,1.4-1.5,2.4-3,2.4c-1.4,0-2.6-1-2.9-2.3"/>
		<path class="st1" d="M23,27.8c-0.3,1.4-1.5,2.4-3,2.4c-1.4,0-2.6-1-2.9-2.3"/>
		<path class="st1" d="M29,27.8c-0.3,1.4-1.5,2.4-3,2.4c-1.4,0-2.6-1-2.9-2.3"/>
		<path class="st1" d="M34.9,27.8c-0.3,1.4-1.5,2.4-3,2.4c-1.4,0-2.6-1-2.9-2.3"/>
	</g>
	<g>
		<path class="st0" d="M14.1,33.5c-0.3,1.4-1.5,2.4-3,2.4c-1.4,0-2.6-1-2.9-2.3"/>
		<path class="st0" d="M20,33.5c-0.3,1.4-1.5,2.4-3,2.4c-1.4,0-2.6-1-2.9-2.3"/>
		<path class="st0" d="M26,33.5c-0.3,1.4-1.5,2.4-3,2.4c-1.4,0-2.6-1-2.9-2.3"/>
		<path class="st0" d="M31.9,33.5c-0.3,1.4-1.5,2.4-3,2.4c-1.4,0-2.6-1-2.9-2.3"/>
	</g>
</g>
</svg>
