<?xml version="1.0" encoding="utf-8"?>
<!-- Generator: Adobe Illustrator 25.2.1, SVG Export Plug-In . SVG Version: 6.00 Build 0)  -->
<svg version="1.1" id="Layer_1" xmlns="http://www.w3.org/2000/svg" xmlns:xlink="http://www.w3.org/1999/xlink" x="0px" y="0px" width="40" height="40"
	 viewBox="0 0 40 40" style="enable-background:new 0 0 40 40;" xml:space="preserve">
<style type="text/css">
	.st0{fill:none;stroke:#FFFFFF;stroke-width:1.8176;stroke-linecap:round;stroke-linejoin:round;stroke-miterlimit:10;}
	.st1{fill:none;stroke:#FFFFFF;stroke-width:1.3632;stroke-linecap:round;stroke-linejoin:round;stroke-miterlimit:10;}
</style>
<g>
	<path class="st0" d="M27.5,32.6c-0.9,0.6-1.8,1.2-2.8,1.7c-8,3.7-17.4,0.2-21.1-7.7S3.4,9.1,11.4,5.4c7.1-3.3,15.4-0.9,19.7,5.4"/>
	<polyline class="st0" points="8,8.8 9.3,9.7 11.7,10.3 12.1,8.8 13.3,7.2 15.5,8.3 15.5,11 14.2,12.2 12.9,14.5 11.4,15.6 
		11.2,17.5 9,16.4 6.9,17.1 8.9,19.9 11.2,20.9 14,20.9 16.7,23.3 18.9,23.3 20.2,25.7 17.9,28.8 14.5,32.3 14.2,34.5 	"/>
	<polyline class="st0" points="12.1,33.8 12.1,32.2 13.1,29.4 12.1,27.6 10.2,25.7 10.2,23.1 8.3,21.9 5.7,21.9 2.5,18.4 	"/>
	<path class="st1" d="M19.6,14.9c-1-0.8-1.2-2.1-0.5-2.9c0.7-0.8,2-0.9,3-0.1l10.3,8.5c0,0,3.4,2.8,2.5,4.1
		c-0.6,0.9-1.7,0.5-4.4-1.3L19.6,14.9z"/>
	<path class="st1" d="M26.3,15l7.4-1.6c0,0,1.9-0.4,3,0.7L29.8,18"/>
	<path class="st1" d="M33.4,20.8l3.2-1.1c0,0,1.2-0.3,1.7,1l-3,2.3"/>
	<path class="st1" d="M30.9,23.6l-1.1,3.2c0,0-0.3,1.2,1,1.7l2.4-3.1"/>
	<path class="st1" d="M23.6,18.5L23.2,26c0,0-0.1,1.9,1.2,2.8l2.6-7.5"/>
</g>
</svg>
