<?xml version="1.0" encoding="utf-8"?>
<!-- Generator: Adobe Illustrator 25.2.1, SVG Export Plug-In . SVG Version: 6.00 Build 0)  -->
<svg version="1.1" id="Layer_1" xmlns="http://www.w3.org/2000/svg" xmlns:xlink="http://www.w3.org/1999/xlink" x="0px" y="0px" width="40" height="40"
	 viewBox="0 0 40 40" style="enable-background:new 0 0 40 40;" xml:space="preserve">
<style type="text/css">
	.st0{fill:none;stroke:#FFFFFF;stroke-width:1.7731;stroke-miterlimit:10;}
	.st1{fill:none;stroke:#FFFFFF;stroke-width:1.7731;stroke-linecap:round;stroke-linejoin:round;stroke-miterlimit:10;}
	.st2{fill:none;stroke:#FFFFFF;stroke-width:1.3298;stroke-linecap:round;stroke-linejoin:round;stroke-miterlimit:10;}
</style>
<g>
	<path class="st0" d="M31.6,21.7c0,8.2-6.7,14.9-14.9,14.9s-15-6.7-15-14.9s6.7-15,14.9-15"/>
	<path class="st0" d="M16.2,6.7c0,0-16.5,13.1,0,29.8"/>
	<path class="st0" d="M24.7,23.5c-0.5,3.9-2.5,8.4-7.2,13.1"/>
	<line class="st0" x1="3" y1="15.7" x2="15.4" y2="15.7"/>
	<line class="st0" x1="3.1" y1="28" x2="30.1" y2="28"/>
	<circle class="st1" cx="26.7" cy="11.9" r="8.5"/>
	<circle class="st2" cx="26.7" cy="9.9" r="2.6"/>
	<path class="st2" d="M22.7,16.4c0-2.2,1.8-3.9,3.9-3.9s3.9,1.8,3.9,3.9"/>
	<line class="st1" x1="32.6" y1="18" x2="38.2" y2="23.5"/>
</g>
</svg>
