<?xml version="1.0" encoding="utf-8"?>
<!-- Generator: Adobe Illustrator 25.2.1, SVG Export Plug-In . SVG Version: 6.00 Build 0)  -->
<svg version="1.1" id="Layer_1" xmlns="http://www.w3.org/2000/svg" xmlns:xlink="http://www.w3.org/1999/xlink" x="0px" y="0px" width="40px" height="40px"
	 viewBox="0 0 40 40" style="enable-background:new 0 0 40 40;" xml:space="preserve">
<style type="text/css">
	.st0{fill:none;stroke:#808080;stroke-width:1.5783;stroke-linecap:round;stroke-linejoin:round;stroke-miterlimit:10;}
	.st1{fill:none;stroke:#E60012;stroke-width:1.5783;stroke-linecap:round;stroke-linejoin:round;stroke-miterlimit:10;}
</style>
<g>
	<g>
		<circle class="st0" cx="20.1" cy="6" r="3.6"/>
		<path class="st0" d="M27.9,19.4V15c0-1.4-1.2-2.6-2.6-2.6h-2.9l-2.2,3.5l-2.4-3.5H15c-1.4,0-2.6,1.2-2.6,2.6v4.5H27.9z"/>
	</g>
	<g>
		<circle class="st0" cx="32.3" cy="25.4" r="2.8"/>
		<path class="st0" d="M37.9,35.2v-2.8c0-1.1-0.9-2.1-2.1-2.1h-7.2c-1.1,0-2.1,0.9-2.1,2.1v2.8H37.9z"/>
		<circle class="st0" cx="8" cy="25.4" r="2.8"/>
		<path class="st0" d="M13.6,35.2v-2.8c0-1.1-0.9-2.1-2.1-2.1H4.4c-1.1,0-2.1,0.9-2.1,2.1v2.8H13.6z"/>
	</g>
	<g>
		<polyline class="st1" points="16.2,29.7 20.1,26.6 24,29.7 		"/>
		<line class="st1" x1="20.1" y1="26.6" x2="20.1" y2="22.6"/>
	</g>
</g>
</svg>
