<?xml version="1.0" encoding="utf-8"?>
<!-- Generator: Adobe Illustrator 23.1.1, SVG Export Plug-In . SVG Version: 6.00 Build 0)  -->
<svg version="1.1" id="圖層_1" xmlns="http://www.w3.org/2000/svg" xmlns:xlink="http://www.w3.org/1999/xlink" x="0px" y="0px" width="70" height="140"
	 viewBox="0 0 70 140" style="enable-background:new 0 0 70 140;" xml:space="preserve">
<style type="text/css">
	.st0{fill:#B5B5B6;}
	.st1{fill:#FF4588;}
	.st2{enable-background:new    ;}
	.st3{fill:#00AEFF;}
	.st4{fill:url(#SVGID_1_);}
	.st5{fill:url(#SVGID_2_);}
	.st6{fill:#FF452D;}
	.st7{fill:url(#SVGID_3_);}
	.st8{fill:url(#SVGID_4_);}
</style>
<rect x="1.7" y="71.5" class="st0" width="14.2" height="14.2"/>
<rect x="18.7" y="71.5" class="st0" width="14.2" height="14.2"/>
<rect x="1.7" y="88.6" class="st0" width="14.2" height="14.2"/>
<rect x="18.7" y="88.6" class="st0" width="14.2" height="14.2"/>
<rect x="36.9" y="71.4" class="st1" width="14.2" height="14.2"/>
<rect x="54.1" y="71.4" class="st1" width="14.2" height="14.2"/>
<rect x="36.9" y="88.4" class="st1" width="14.2" height="14.2"/>
<rect x="54.1" y="88.4" class="st1" width="14.2" height="14.2"/>
<g class="st2">
	<path class="st0" d="M31.2,31.9l-2.7,2.9L4.6,17.4L28.5,0.1L31.2,3l-20,14.5L31.2,31.9z"/>
</g>
<g>
	<g>
		<path class="st1" d="M65.5,67l-2.7,2.9L38.9,52.5l23.9-17.4l2.7,2.9l-20,14.5L65.5,67z"/>
	</g>
</g>
<g class="st2">
	<path class="st0" d="M25.4,52.3l-20-14.5l2.7-2.9L32,52.3L8.1,69.6l-2.7-2.9L25.4,52.3z"/>
</g>
<g class="st2">
	<path class="st1" d="M60.3,17.4l-20-14.5L43,0.1l23.9,17.4L43,34.8l-2.7-2.9L60.3,17.4z"/>
</g>
<g>
	<g>
		<path class="st3" d="M7,105.4c-1.2,0-2.2,0.8-3,2.2c-0.8,1.4-1.2,2.7-1.2,4.6v21.1c0,1.6,0.4,3.2,1.2,4.6c0.8,1.3,1.8,2.2,3,2.2
			h18.1l0.4-0.6l0.8-0.9l0.9-2.7c1.1,0,2.5-1.4,3.5-2.7c0.8-1.4-0.4,1.2,0.2,0.2l2.2-2.2v-18.9c-0.1-1.9-0.5-3.2-1.2-4.6
			c-1-1.3-1.9-2.2-3-2.2H7V105.4z"/>
	</g>
	<g>
		<g>
			
				<linearGradient id="SVGID_1_" gradientUnits="userSpaceOnUse" x1="406310.5" y1="-275589.5938" x2="407042.2188" y2="-276220.4688" gradientTransform="matrix(0 9.700000e-03 -1.440000e-02 0 -3952.2739 -3821.1047)">
				<stop  offset="0" style="stop-color:#FFFFFF"/>
				<stop  offset="0.4663" style="stop-color:#FFFFFF"/>
			</linearGradient>
			<path class="st4" d="M15.4,115.5c-0.4,0.1-0.7,0.3-0.8,0.4c-0.3,0.2-0.4,0.5-0.4,0.9v6.5H11c-0.5,0-0.7,0.1-0.8,0.5
				c-0.1,0.1-0.1,0.4-0.1,0.6s0.1,0.5,0.3,0.5l6.8,6.8c0.2,0.2,0.5,0.4,0.8,0.4s0.6-0.1,0.8-0.4l6.8-6.8c0.1-0.1,0.2-0.2,0.3-0.5
				c0-0.2,0-0.5-0.1-0.6c-0.2-0.4-0.4-0.5-0.7-0.5h-3l0.8-8.7C23,114,20.4,114.4,15.4,115.5z"/>
		</g>
	</g>
	
		<linearGradient id="SVGID_2_" gradientUnits="userSpaceOnUse" x1="28.0376" y1="586.2161" x2="31.6862" y2="589.8644" gradientTransform="matrix(0.9999 1.000000e-02 -1.000000e-02 0.9999 3.8308 -453.9956)">
		<stop  offset="0.2393" style="stop-color:#FFFFFF"/>
		<stop  offset="0.2717" style="stop-color:#F6F5F1"/>
		<stop  offset="0.3825" style="stop-color:#DCD7C7"/>
		<stop  offset="0.4695" style="stop-color:#CBC4AE"/>
		<stop  offset="0.5215" style="stop-color:#C5BDA4"/>
	</linearGradient>
	<path class="st5" d="M32.5,131.2h-3.6c-1.9,0-3.4,1.8-3.5,4v4.3c0,0.2-0.1,0.4-0.2,0.5l7.7-8.9C32.8,131.1,32.7,131.2,32.5,131.2z"
		/>
</g>
<g>
	<g>
		<path class="st6" d="M41.7,105.4c-1.2,0-2.2,0.8-3,2.2c-0.8,1.4-1.2,2.7-1.2,4.6v21.1c0,1.6,0.4,3.2,1.2,4.6
			c0.8,1.3,1.8,2.2,3,2.2h18.1l0.4-0.6l0.8-0.9l0.9-2.7c1.1,0,2.5-1.4,3.5-2.7c0.8-1.4-0.4,1.2,0.2,0.2l2.2-2.2v-18.9
			c-0.1-1.9-0.5-3.2-1.2-4.6c-1-1.3-1.9-2.2-3-2.2H41.7V105.4z"/>
	</g>
	<g>
		<g>
			
				<linearGradient id="SVGID_3_" gradientUnits="userSpaceOnUse" x1="406310.3125" y1="-277999.1875" x2="407042.0312" y2="-278630.0312" gradientTransform="matrix(0 9.700000e-03 -1.440000e-02 0 -3952.2739 -3821.1047)">
				<stop  offset="0" style="stop-color:#FFFFFF"/>
				<stop  offset="0.4663" style="stop-color:#FFFFFF"/>
			</linearGradient>
			<path class="st7" d="M50.1,115.5c-0.4,0.1-0.7,0.3-0.8,0.4c-0.3,0.2-0.4,0.5-0.4,0.9v6.5h-3.2c-0.5,0-0.7,0.1-0.8,0.5
				c-0.1,0.1-0.1,0.4-0.1,0.6s0.1,0.5,0.3,0.5l6.8,6.8c0.2,0.2,0.5,0.4,0.8,0.4s0.6-0.1,0.8-0.4l6.8-6.8c0.1-0.1,0.2-0.2,0.3-0.5
				c0-0.2,0-0.5-0.1-0.6c-0.2-0.4-0.4-0.5-0.7-0.5h-3l0.8-8.7C57.7,114,55.1,114.4,50.1,115.5z"/>
		</g>
	</g>
	
		<linearGradient id="SVGID_4_" gradientUnits="userSpaceOnUse" x1="62.7352" y1="585.8667" x2="66.3838" y2="589.515" gradientTransform="matrix(0.9999 1.000000e-02 -1.000000e-02 0.9999 3.8308 -453.9956)">
		<stop  offset="0.2393" style="stop-color:#FFFFFF"/>
		<stop  offset="0.2717" style="stop-color:#F6F5F1"/>
		<stop  offset="0.3825" style="stop-color:#DCD7C7"/>
		<stop  offset="0.4695" style="stop-color:#CBC4AE"/>
		<stop  offset="0.5215" style="stop-color:#C5BDA4"/>
	</linearGradient>
	<path class="st8" d="M67.2,131.2h-3.6c-1.9,0-3.4,1.8-3.5,4v4.3c0,0.2-0.1,0.4-0.2,0.5l7.7-8.9C67.5,131.1,67.4,131.2,67.2,131.2z"
		/>
</g>
</svg>
