<?xml version="1.0" encoding="utf-8"?>
<!-- Generator: Adobe Illustrator 25.2.1, SVG Export Plug-In . SVG Version: 6.00 Build 0)  -->
<svg version="1.1" id="圖層_1" xmlns="http://www.w3.org/2000/svg" xmlns:xlink="http://www.w3.org/1999/xlink" x="0px" y="0px" width="235" height="112"
	 viewBox="0 0 235 112" style="enable-background:new 0 0 235 112;" xml:space="preserve">
<style type="text/css">
	.st0{fill:#194999;}
	.st1{fill:#C78C0E;}
	.st2{fill:#FFFFFF;}
	.st3{fill:#D20000;}
	.st4{fill:#199976;}
</style>
<rect x="177.3" y="0.4" class="st0" width="57.6" height="55.8"/>
<rect x="117.9" y="0.4" class="st1" width="57.6" height="55.8"/>
<rect x="117.9" y="56" class="st2" width="57.6" height="55.8"/>
<rect x="59.1" y="0.4" class="st3" width="57.6" height="55.8"/>
<rect x="59.1" y="56" class="st2" width="57.6" height="55.8"/>
<rect y="0.4" class="st4" width="57.6" height="55.8"/>
<rect y="56" class="st2" width="57.6" height="55.8"/>
<g>
	<path class="st2" d="M139,31.6c0,2.9-1.7,4.3-5.1,4.3c-2.4,0-3.9-1.3-4.7-3.8l1.8-0.7c0.3,0.9,0.6,1.6,1.1,2c0.4,0.5,1,0.7,1.8,0.7
		c2,0,3.1-0.8,3.1-2.5c0-1.1-1.2-2.2-3.6-3.3c-1.2-0.6-2.1-1.1-2.6-1.5c-0.8-0.7-1.2-1.6-1.2-2.5c0-1.2,0.4-2.1,1.2-2.9
		c0.8-0.7,2-1.1,3.4-1.1c2.4,0,3.9,1,4.6,3.1l-1.7,0.9c-0.6-1.5-1.5-2.2-2.9-2.2c-0.9,0-1.6,0.2-2,0.7c-0.4,0.4-0.6,0.9-0.6,1.5
		c0,0.5,0.3,1,0.9,1.4c0.4,0.3,1,0.6,1.9,1c1.4,0.6,2.4,1.2,3.1,1.8C138.5,29.4,139,30.4,139,31.6z"/>
	<path class="st2" d="M151.7,35.7h-1.8V25.2l-2.5,10.5h-1.2l-2.5-10.5v10.5h-1.8V20.5h2.2l2.8,11l2.8-11h2.2v15.1h-0.2V35.7z"/>
	<path class="st2" d="M163.8,28.2c0,2.4-0.6,4.2-1.7,5.5c-1.1,1.3-2.7,2-4.7,2h-2.9V20.5h2.9c2.1,0,3.6,0.6,4.7,1.7
		C163.2,23.4,163.8,25.4,163.8,28.2z M161.8,28.2c0-2.2-0.4-3.8-1.1-4.7c-0.7-0.8-1.7-1.3-3.2-1.3h-1v11.7h0.9
		c1.3,0,2.3-0.5,3.1-1.5C161.5,31.4,161.8,30,161.8,28.2z"/>
</g>
<g>
	<path class="st2" d="M71.9,20h13.6v1.3h-6v1.1h7v4.1H85v-2.8h-5.5V28h-1.6v-4.3h-5.6v3h-1.6v-4.2h7.1v-1.1h-6L71.9,20L71.9,20z
		 M72.8,28.4H85v7.2h-1.5V35h-9.2v0.6h-1.5V28.4z M73.3,24.5H77v1.1h-3.8v-1.1H73.3z M73.3,26.3H77v1.1h-3.8v-1.1H73.3z M74.2,31.1
		h3.7v-1.4h-3.7V31.1z M74.2,33.8h3.7v-1.5h-3.7V33.8z M79.4,29.7v1.4h4v-1.4H79.4z M79.4,33.8h4v-1.5h-4V33.8z M80.2,24.5h3.9v1.1
		h-3.9V24.5z M80.2,26.3h3.9v1.1h-3.9V26.3z"/>
	<path class="st2" d="M92.4,19.2l1.4,0.4c0.2,0,0.3,0.1,0.3,0.2s-0.1,0.3-0.3,0.4l-0.4,1h2.7v6.3c0.2-0.3,0.4-0.6,0.6-0.8l1.3,0.7
		c0.1,0.1,0.2,0.2,0.2,0.4c0,0.2-0.2,0.2-0.6,0.3c-0.5,0.7-1,1.3-1.5,1.9v4.3c0,0.8-0.3,1.3-1,1.5c-0.5,0.2-1.1,0.3-1.6,0.3
		l-0.6-1.6h1.2c0.3,0,0.5-0.2,0.5-0.7v-2.1c-1.5,1.5-3.2,2.8-5.1,3.8l-1.1-1.4c1.9-0.9,3.3-1.8,4.4-2.8c0.2-0.2,0.5-0.4,0.7-0.6
		c-1.1,0.2-2.4,0.4-4.1,0.7c-0.1,0.2-0.2,0.3-0.3,0.3c-0.1,0-0.2-0.1-0.2-0.2l-0.4-1.6c0.4,0,0.9-0.1,1.3-0.1v-8.4h2.1L92.4,19.2z
		 M91.3,23.9h3.1v-1.4h-3.1V23.9z M91.3,26.4h3.1v-1.3h-3.1V26.4z M91.3,29.3c1.1-0.1,2.1-0.3,3.1-0.4v-1.3h-3.1V29.3z M96.7,23.8
		h4.7v-4.4l1.8,0.2c0.2,0,0.3,0.1,0.3,0.2c0,0.2-0.1,0.3-0.4,0.5v3.5h1.5v1.5H103v8.4c0,0.7-0.2,1.2-0.7,1.6
		c-0.4,0.4-1.3,0.5-2.8,0.5l-0.7-1.6h1.6c0.6,0,0.9-0.3,0.9-0.8v-8.2h-4.7C96.7,25.1,96.7,23.8,96.7,23.8z M98.9,27.9
		c0.6,0.8,1.2,1.7,1.8,2.8l-1.2,1.1c-0.6-1.2-1.1-2.1-1.7-2.8L98.9,27.9z"/>
</g>
<g>
	<path class="st2" d="M15,19.7l1.4,0.5c0.2,0.1,0.3,0.1,0.3,0.2s-0.1,0.2-0.4,0.4c-0.4,0.8-0.9,1.6-1.5,2.5c1-0.1,2-0.2,3-0.2
		c-0.2-0.5-0.5-0.9-0.8-1.4l1.2-0.4c0.9,1.2,1.5,2.4,1.8,3.5l-1.5,0.3c-0.1-0.3-0.1-0.5-0.2-0.8c-1.4,0.2-3.4,0.4-6,0.7
		c-0.1,0.2-0.2,0.3-0.3,0.3s-0.2-0.1-0.2-0.2l-0.3-1.5c0.6,0,1.1-0.1,1.6-0.1c0.3-0.5,0.6-1,0.7-1.4C14.5,21.3,14.7,20.5,15,19.7z
		 M13.5,25.9h5.8v8.2c0,0.7-0.3,1.2-1,1.4c-0.5,0.2-1.1,0.2-1.6,0.2L16,34.2h1.2c0.4,0,0.5-0.2,0.5-0.5v-1.2h-3.6v3.2h-1.5v-9.8
		L13.5,25.9L13.5,25.9z M14.2,28.5h3.6v-1.2h-3.6C14.2,27.3,14.2,28.5,14.2,28.5z M14.2,31.2h3.6v-1.4h-3.6
		C14.2,29.8,14.2,31.2,14.2,31.2z M20.5,20.3l1.8,0.2c0.2,0,0.4,0.1,0.4,0.3c0,0.1-0.1,0.3-0.3,0.5c-0.2,0.1-0.2,0.3-0.2,0.6v1.2
		c0.5-0.1,0.9-0.2,1.3-0.4c0.8-0.3,1.7-0.7,2.7-1.2l1.1,1.1c0.1,0.1,0.1,0.1,0.1,0.2s-0.1,0.1-0.1,0.1L27,22.8c-0.1,0-0.2,0-0.4,0.1
		c-1.5,0.7-3,1.2-4.5,1.5v0.4c0,0.5,0.1,0.8,0.2,1.1c0.2,0.2,0.5,0.3,1,0.3h1.3c0.5,0,0.9-0.1,1.2-0.3c0.3-0.2,0.5-0.6,0.7-1.4
		l1.5,0.6c-0.3,1-0.7,1.7-1.1,2s-0.8,0.4-1.3,0.4h-3c-0.7,0-1.3-0.2-1.6-0.7c-0.3-0.4-0.5-1-0.5-1.8C20.5,25,20.5,20.3,20.5,20.3z
		 M20.5,28.1l1.8,0.2c0.2,0,0.4,0.1,0.4,0.2s-0.1,0.3-0.3,0.5c-0.2,0.1-0.2,0.3-0.2,0.6v1c0.5-0.1,1-0.2,1.4-0.4
		c0.8-0.2,1.7-0.6,2.7-1.1l1.1,1.1c0.1,0.1,0.1,0.2,0.1,0.2c0,0.1-0.1,0.1-0.1,0.1l-0.3-0.1c-0.1,0-0.2,0-0.4,0.1
		c-1.5,0.6-3,1.1-4.6,1.4v0.8c0,0.5,0.1,0.8,0.2,1.1c0.2,0.2,0.5,0.3,1,0.3h1.1c0.5,0,0.9-0.1,1.2-0.3c0.3-0.2,0.5-0.6,0.7-1.4
		l1.5,0.6c-0.3,1.1-0.7,1.8-1.1,2.1s-0.8,0.4-1.3,0.4h-2.8c-0.7,0-1.3-0.2-1.6-0.6c-0.3-0.4-0.5-1-0.5-1.8
		C20.5,33.1,20.5,28.1,20.5,28.1z"/>
	<path class="st2" d="M30.7,24.1c1.1,0.5,2,1.1,2.7,1.7l-1,1.1c-0.9-0.7-1.8-1.2-2.8-1.8L30.7,24.1z M32.4,28.5l0.9,1.1
		c-0.7,1.9-1.4,3.6-2.1,5.2c0,0.4-0.1,0.6-0.3,0.6l-1.4-1C30.6,32.6,31.6,30.7,32.4,28.5z M31.6,19.9c1,0.6,1.9,1.1,2.6,1.8l-1,1
		c-0.8-0.6-1.7-1.2-2.7-1.7L31.6,19.9z M34.9,20.3h10.6v1.4H42l-0.9,2H45v6.7h-3v3.5c0,1-0.2,1.6-0.6,1.8c-0.3,0.2-1,0.3-2.2,0.3
		l-0.5-1.4c0.9,0,1.4,0,1.5-0.1c0.2-0.1,0.2-0.3,0.2-0.6v-3.6h-3.3v-6.7h2.2l0.8-2h-3.8v1.6c0,2.5-0.2,4.7-0.6,6.7
		c-0.3,1.5-0.8,3.3-1.6,5.6l-1.5-0.7c0.8-2,1.3-3.7,1.6-5.2c0.4-2.2,0.6-4.3,0.6-6.4L34.9,20.3L34.9,20.3z M38,31l1.1,0.7
		c0.2,0.1,0.3,0.2,0.3,0.3c0,0.1-0.1,0.2-0.3,0.2c-0.5,1-1.1,2-1.8,3l-1.4-0.9C36.6,33.3,37.3,32.2,38,31z M38.7,26.3h4.9v-1.4h-4.9
		V26.3z M43.6,29v-1.3h-4.9V29H43.6z M43.9,31c0.7,1.1,1.5,2.1,2.5,3L45,35.1c-0.8-0.9-1.5-2-2.2-3.4L43.9,31z"/>
</g>
<g>
	<path class="st1" d="M139,88c0,2.9-1.7,4.3-5.1,4.3c-2.4,0-3.9-1.3-4.7-3.8l1.8-0.7c0.3,0.9,0.6,1.6,1.1,2c0.4,0.5,1,0.7,1.8,0.7
		c2,0,3.1-0.8,3.1-2.5c0-1.1-1.2-2.2-3.6-3.3c-1.2-0.6-2.1-1.1-2.6-1.5c-0.8-0.7-1.2-1.6-1.2-2.5c0-1.2,0.4-2.1,1.2-2.9
		c0.8-0.7,2-1.1,3.4-1.1c2.4,0,3.9,1,4.6,3.1l-1.7,0.9c-0.6-1.5-1.5-2.2-2.9-2.2c-0.9,0-1.6,0.2-2,0.7c-0.4,0.4-0.6,0.9-0.6,1.5
		c0,0.5,0.3,1,0.9,1.4c0.4,0.3,1,0.6,1.9,1c1.4,0.6,2.4,1.2,3.1,1.8C138.5,85.8,139,86.8,139,88z"/>
	<path class="st1" d="M151.6,92.1h-1.8V81.6l-2.5,10.5h-1.2l-2.5-10.5v10.5h-1.8V76.9h2.2l2.8,11l2.8-11h2.2V92L151.6,92.1
		L151.6,92.1z"/>
	<path class="st1" d="M163.7,84.6c0,2.4-0.6,4.2-1.7,5.5c-1.1,1.3-2.7,2-4.7,2h-2.9V76.9h2.9c2.1,0,3.6,0.6,4.7,1.7
		C163.2,79.8,163.7,81.8,163.7,84.6z M161.7,84.6c0-2.2-0.4-3.8-1.1-4.7c-0.7-0.8-1.7-1.3-3.2-1.3h-0.9v11.7h0.9
		c1.3,0,2.3-0.5,3.1-1.5C161.4,87.8,161.7,86.4,161.7,84.6z"/>
</g>
<g>
	<path class="st3" d="M72,76.4h13.6v1.3h-6v1.1h7v4.1H85v-2.8h-5.5v4.3h-1.6v-4.3h-5.6v3h-1.6v-4.2h7.1v-1.1h-6L72,76.4L72,76.4z
		 M72.8,84.8H85V92h-1.4v-0.6h-9.3V92h-1.5C72.8,92,72.8,84.8,72.8,84.8z M73.4,80.9h3.8V82h-3.8V80.9z M73.4,82.7h3.8v1.1h-3.8
		V82.7z M74.2,87.5h3.7v-1.4h-3.7V87.5z M74.2,90.2h3.7v-1.5h-3.7V90.2z M79.5,86.1v1.4h4v-1.4H79.5z M79.5,90.2h4v-1.5h-4V90.2z
		 M80.2,80.9h3.9V82h-3.9V80.9z M80.2,82.7h3.9v1.1h-3.9V82.7z"/>
	<path class="st3" d="M92.4,75.6l1.4,0.4c0.2,0,0.3,0.1,0.3,0.2s-0.1,0.3-0.3,0.4l-0.4,1h2.7v6.3c0.2-0.3,0.4-0.6,0.6-0.8l1.3,0.7
		c0.1,0.1,0.2,0.2,0.2,0.4c0,0.2-0.2,0.2-0.6,0.3c-0.5,0.7-1,1.3-1.5,1.9v4.3c0,0.8-0.3,1.3-1,1.5c-0.5,0.2-1.1,0.3-1.6,0.3
		l-0.6-1.6h1.2c0.3,0,0.5-0.2,0.5-0.7v-2.1c-1.5,1.5-3.2,2.8-5.1,3.8l-1.1-1.4c1.9-0.9,3.3-1.8,4.4-2.8c0.2-0.2,0.5-0.4,0.7-0.6
		c-1.1,0.2-2.4,0.4-4.1,0.7c-0.1,0.2-0.2,0.3-0.3,0.3s-0.2-0.1-0.2-0.2l-0.5-1.8c0.4,0,0.9-0.1,1.3-0.1v-8.4h2.1L92.4,75.6z
		 M91.3,80.3h3.1v-1.4h-3.1V80.3z M91.3,82.8h3.1v-1.3h-3.1V82.8z M91.3,85.7c1.1-0.1,2.1-0.3,3.1-0.4V84h-3.1V85.7z M96.7,80.2h4.7
		v-4.4l1.8,0.2c0.2,0,0.3,0.1,0.3,0.2c0,0.2-0.1,0.3-0.4,0.5v3.5h1.5v1.5H103v8.4c0,0.7-0.2,1.2-0.7,1.6c-0.4,0.4-1.3,0.5-2.8,0.5
		l-0.7-1.6h1.6c0.6,0,0.9-0.3,0.9-0.8v-8.2h-4.7C96.7,81.5,96.7,80.2,96.7,80.2z M99,84.3c0.6,0.8,1.2,1.7,1.8,2.8l-1.2,1.1
		c-0.6-1.2-1.1-2.1-1.7-2.8L99,84.3z"/>
</g>
<g>
	<path class="st4" d="M15,76.1l1.4,0.5c0.2,0.1,0.3,0.1,0.3,0.2s-0.1,0.2-0.4,0.4c-0.4,0.8-0.9,1.6-1.5,2.5c1-0.1,2-0.2,3-0.2
		c-0.2-0.5-0.5-0.9-0.8-1.4l1.2-0.4c0.9,1.2,1.5,2.4,1.8,3.5l-1.5,0.3c-0.1-0.3-0.1-0.5-0.2-0.8c-1.4,0.2-3.4,0.4-6,0.7
		c-0.1,0.2-0.2,0.3-0.3,0.3s-0.2-0.1-0.2-0.2L11.6,80c0.6,0,1.1-0.1,1.6-0.1c0.3-0.5,0.6-1,0.7-1.4C14.4,77.7,14.7,76.9,15,76.1z
		 M13.4,82.3h5.8v8.2c0,0.7-0.3,1.2-1,1.4c-0.5,0.2-1.1,0.2-1.6,0.2L16,90.6h1.2c0.4,0,0.5-0.2,0.5-0.5v-1.2h-3.6v3.2h-1.4v-9.8
		L13.4,82.3L13.4,82.3z M14.2,84.9h3.6v-1.2h-3.6C14.2,83.7,14.2,84.9,14.2,84.9z M14.2,87.6h3.6v-1.4h-3.6
		C14.2,86.2,14.2,87.6,14.2,87.6z M20.4,76.7l1.8,0.2c0.2,0,0.4,0.1,0.4,0.3c0,0.1-0.1,0.3-0.3,0.5c-0.2,0.1-0.2,0.3-0.2,0.6v1.2
		c0.5-0.1,0.9-0.2,1.3-0.4c0.8-0.3,1.7-0.7,2.7-1.2l1.1,1.1c0.1,0.1,0.1,0.1,0.1,0.2s-0.1,0.1-0.1,0.1l-0.3-0.1
		c-0.1,0-0.2,0-0.4,0.1c-1.5,0.7-3,1.2-4.5,1.5v0.4c0,0.5,0.1,0.8,0.2,1.1c0.2,0.2,0.5,0.3,1,0.3h1.3c0.5,0,0.9-0.1,1.2-0.3
		c0.3-0.2,0.5-0.6,0.7-1.4l1.5,0.6c-0.3,1-0.7,1.7-1.1,2s-0.8,0.4-1.3,0.4h-3c-0.7,0-1.3-0.2-1.6-0.7c-0.3-0.4-0.5-1-0.5-1.8
		C20.4,81.4,20.4,76.7,20.4,76.7z M20.4,84.5l1.8,0.2c0.2,0,0.4,0.1,0.4,0.2s-0.1,0.3-0.3,0.5c-0.2,0.1-0.2,0.3-0.2,0.6v1
		c0.5-0.1,1-0.2,1.4-0.4c0.8-0.2,1.7-0.6,2.7-1.1l1.1,1.1c0.1,0.1,0.1,0.2,0.1,0.2c0,0.1-0.1,0.1-0.1,0.1L27,86.8
		c-0.1,0-0.2,0-0.4,0.1c-1.5,0.6-3,1.1-4.6,1.4v0.8c0,0.5,0.1,0.8,0.2,1.1c0.2,0.2,0.5,0.3,1,0.3h1.2c0.5,0,0.9-0.1,1.2-0.3
		c0.3-0.2,0.5-0.6,0.7-1.4l1.5,0.6c-0.3,1.1-0.7,1.8-1.1,2.1c-0.4,0.3-0.8,0.4-1.3,0.4h-2.8c-0.7,0-1.3-0.2-1.6-0.6
		c-0.3-0.4-0.5-1-0.5-1.8L20.4,84.5L20.4,84.5z"/>
	<path class="st4" d="M30.7,80.5c1.1,0.5,2,1.1,2.7,1.7l-1,1.1c-0.9-0.7-1.8-1.2-2.8-1.8L30.7,80.5z M32.4,84.9l0.9,1.1
		c-0.7,1.9-1.4,3.6-2.1,5.2c0,0.4-0.1,0.6-0.3,0.6l-1.4-1C30.6,89,31.5,87.1,32.4,84.9z M31.5,76.3c1,0.6,1.9,1.1,2.6,1.8l-1,1
		c-0.8-0.6-1.7-1.2-2.7-1.7L31.5,76.3z M34.9,76.7h10.6v1.4H42l-0.9,2H45v6.7h-3v3.5c0,1-0.2,1.6-0.6,1.8c-0.3,0.2-1,0.3-2.2,0.3
		L38.7,91c0.9,0,1.4,0,1.5-0.1c0.2-0.1,0.2-0.3,0.2-0.6v-3.6h-3.3V80h2.2l0.8-2h-3.8v1.6c0,2.5-0.2,4.7-0.6,6.7
		c-0.3,1.5-0.8,3.3-1.6,5.6l-1.5-0.7c0.8-2,1.3-3.7,1.6-5.2c0.4-2.2,0.6-4.3,0.6-6.4L34.9,76.7L34.9,76.7z M37.9,87.4l1.1,0.7
		c0.2,0.1,0.3,0.2,0.3,0.3c0,0.1-0.1,0.2-0.3,0.2c-0.5,1-1.1,2-1.8,3l-1.4-0.9C36.5,89.7,37.3,88.6,37.9,87.4z M38.6,82.7h4.9v-1.4
		h-4.9V82.7z M43.6,85.4v-1.3h-4.9v1.3H43.6z M43.9,87.4c0.7,1.1,1.5,2.1,2.5,3L45,91.5c-0.8-0.9-1.5-2-2.2-3.4L43.9,87.4z"/>
</g>
<g>
	<g>
		<path class="st2" d="M198.8,23.9c0,1.8-1.5,2.8-4.5,2.8c-2.1,0-3.5-0.8-4.1-2.5l1.6-0.5c0.3,0.6,0.6,1,0.9,1.3
			c0.4,0.3,0.9,0.4,1.6,0.4c1.8,0,2.7-0.5,2.7-1.6c0-0.7-1.1-1.4-3.2-2.1c-1.1-0.4-1.9-0.7-2.3-1c-0.7-0.5-1.1-1-1.1-1.6
			c0-0.8,0.4-1.4,1.1-1.8c0.7-0.5,1.7-0.7,3-0.7c2.1,0,3.4,0.7,4.1,2l-1.5,0.6c-0.5-1-1.4-1.4-2.5-1.4c-0.8,0-1.4,0.1-1.8,0.4
			c-0.4,0.2-0.5,0.6-0.5,0.9c0,0.3,0.3,0.6,0.8,0.9c0.3,0.2,0.9,0.4,1.7,0.7c1.2,0.4,2.1,0.8,2.7,1.1
			C198.3,22.5,198.8,23.1,198.8,23.9z"/>
		<path class="st2" d="M208.6,26.6h-7.6v-9.8h7.6v1.1h-5.9V21h5.1v1.2h-5.1v3.3h5.9V26.6z"/>
		<path class="st2" d="M219.6,26.6H218v-6.8l-2.2,6.8h-1.1l-2.2-6.8v6.8h-1.6v-9.8h1.9l2.4,7l2.4-7h1.9V26.6z"/>
		<path class="st2" d="M223.9,26.6h-1.7v-9.8h1.7V26.6z"/>
	</g>
	<g>
		<path class="st2" d="M202.4,34.1c0,1.8-1.4,2.7-4.3,2.7h-2.3v4.3h-1.7v-9.8h4C200.9,31.4,202.4,32.3,202.4,34.1z M200.7,34.1
			c0-1.1-0.9-1.6-2.8-1.6h-2.1v3.2h2.1C199.7,35.7,200.7,35.2,200.7,34.1z"/>
		<path class="st2" d="M212.3,33.5l-1.4,0.5c-0.5-1-1.3-1.5-2.4-1.5c-0.8,0-1.5,0.3-2.1,1c-0.6,0.7-0.8,1.7-0.8,2.9
			c0,1.2,0.3,2.1,0.8,2.8c0.5,0.6,1.1,0.9,1.8,0.9c0.7,0,1.2-0.2,1.6-0.5c0.3-0.3,0.6-0.7,0.9-1.3l1.4,0.4c-0.3,0.8-0.8,1.4-1.4,1.8
			c-0.6,0.4-1.5,0.7-2.5,0.7c-1.2,0-2.3-0.4-3.1-1.2c-0.9-0.9-1.3-2.1-1.3-3.7c0-1.6,0.5-2.9,1.4-3.8c0.9-0.9,2-1.3,3.3-1.3
			C210.4,31.3,211.6,32,212.3,33.5z"/>
		<path class="st2" d="M222.3,38.4c0,0.9-0.5,1.6-1.4,2.1c-0.8,0.4-1.8,0.7-3,0.7h-3.7v-9.8h3.5c1.3,0,2.2,0.2,3,0.6
			c0.9,0.4,1.3,1.1,1.3,2.1c0,1-0.6,1.7-1.8,2C221.6,36.5,222.3,37.2,222.3,38.4z M220.3,34c0-1-0.9-1.5-2.8-1.5h-1.6v3h1.6
			C219.4,35.5,220.3,35,220.3,34z M220.6,38.4c0-0.7-0.3-1.2-0.9-1.4c-0.4-0.2-1.1-0.3-2-0.3h-1.8V40h1.8
			C219.7,40,220.6,39.5,220.6,38.4z"/>
	</g>
</g>
<rect x="177.3" y="56.3" class="st2" width="57.6" height="55.8"/>
<g>
	<g>
		<path class="st0" d="M198.8,79.8c0,1.8-1.5,2.8-4.5,2.8c-2.1,0-3.5-0.8-4.1-2.5l1.6-0.5c0.3,0.6,0.6,1,0.9,1.3
			c0.4,0.3,0.9,0.4,1.6,0.4c1.8,0,2.7-0.5,2.7-1.6c0-0.7-1.1-1.4-3.2-2.1c-1.1-0.4-1.9-0.7-2.3-1c-0.7-0.5-1.1-1-1.1-1.6
			c0-0.8,0.4-1.4,1.1-1.8c0.7-0.5,1.7-0.7,3-0.7c2.1,0,3.4,0.7,4.1,2l-1.5,0.6c-0.5-1-1.4-1.4-2.5-1.4c-0.8,0-1.4,0.1-1.8,0.4
			c-0.4,0.2-0.5,0.6-0.5,0.9c0,0.3,0.3,0.6,0.8,0.9c0.3,0.2,0.9,0.4,1.7,0.7c1.2,0.4,2.1,0.8,2.7,1.1
			C198.3,78.3,198.8,79,198.8,79.8z"/>
		<path class="st0" d="M208.6,82.4h-7.6v-9.8h7.6v1.1h-5.9v3.1h5.1V78h-5.1v3.3h5.9V82.4z"/>
		<path class="st0" d="M219.6,82.4H218v-6.8l-2.2,6.8h-1.1l-2.2-6.8v6.8h-1.6v-9.8h1.9l2.4,7l2.4-7h1.9V82.4z"/>
		<path class="st0" d="M223.9,82.4h-1.7v-9.8h1.7V82.4z"/>
	</g>
	<g>
		<path class="st0" d="M202.4,90c0,1.8-1.4,2.7-4.3,2.7h-2.3V97h-1.7v-9.8h4C200.9,87.3,202.4,88.2,202.4,90z M200.7,90
			c0-1.1-0.9-1.6-2.8-1.6h-2.1v3.2h2.1C199.7,91.6,200.7,91.1,200.7,90z"/>
		<path class="st0" d="M212.3,89.4l-1.4,0.5c-0.5-1-1.3-1.5-2.4-1.5c-0.8,0-1.5,0.3-2.1,1c-0.6,0.7-0.8,1.7-0.8,2.9
			c0,1.2,0.3,2.1,0.8,2.8c0.5,0.6,1.1,0.9,1.8,0.9c0.7,0,1.2-0.2,1.6-0.5c0.3-0.3,0.6-0.7,0.9-1.3l1.4,0.4c-0.3,0.8-0.8,1.4-1.4,1.8
			c-0.6,0.4-1.5,0.7-2.5,0.7c-1.2,0-2.3-0.4-3.1-1.2c-0.9-0.9-1.3-2.1-1.3-3.7c0-1.6,0.5-2.9,1.4-3.8c0.9-0.9,2-1.3,3.3-1.3
			C210.4,87.2,211.6,87.9,212.3,89.4z"/>
		<path class="st0" d="M222.3,94.3c0,0.9-0.5,1.6-1.4,2.1c-0.8,0.4-1.8,0.7-3,0.7h-3.7v-9.8h3.5c1.3,0,2.2,0.2,3,0.6
			c0.9,0.4,1.3,1.1,1.3,2.1c0,1-0.6,1.7-1.8,2C221.6,92.3,222.3,93.1,222.3,94.3z M220.3,89.9c0-1-0.9-1.5-2.8-1.5h-1.6v3h1.6
			C219.4,91.4,220.3,90.9,220.3,89.9z M220.6,94.3c0-0.7-0.3-1.2-0.9-1.4c-0.4-0.2-1.1-0.3-2-0.3h-1.8v3.4h1.8
			C219.7,95.9,220.6,95.4,220.6,94.3z"/>
	</g>
</g>
</svg>
