<?xml version="1.0" encoding="utf-8"?>
<!-- Generator: Adobe Illustrator 23.1.1, SVG Export Plug-In . SVG Version: 6.00 Build 0)  -->
<svg version="1.1" id="Layer_1" xmlns:sketch="http://www.bohemiancoding.com/sketch/ns"
	 xmlns="http://www.w3.org/2000/svg" xmlns:xlink="http://www.w3.org/1999/xlink" x="0px" y="0px" viewBox="0 0 260 66.4" width="260px" height="66.3px"
	 style="enable-background:new 0 0 260 66.4;" xml:space="preserve">
<style type="text/css">
	.st0{fill:#E50012;}
	.st1{fill:#231815;}
	.st2{fill:#FFFFFF;}
</style>
<title>ltt_logo</title>
<desc>雷科股份有限公司</desc>
<path class="st0" d="M45.5,30.2h209v-1.5H44l-5-0.8c0-0.4-0.2-0.8-0.4-1l10.9-6.7l-12,4.6c-0.2-0.2-0.4-0.6-0.6-0.8L49.1,8.4
	L34.6,21.6c0,0-0.4-0.2-0.6-0.2l3.1-13.2l-5.2,12.2c-0.2,0-0.6-0.2-0.8-0.2L29.4,0L27.9,20c-0.4,0-0.6,0-1,0.2L20.3,8.9L24.5,21
	c-0.4,0.2-0.8,0.4-1,0.6L9.2,9.1l12,14.5c-0.4,0.4-0.6,0.8-1,1.5L8.8,21.9l10.5,5c-0.2,0.6-0.4,1-0.4,1.7L1.5,30.2l17.4,1.3
	c0,0.6,0.2,1.5,0.4,2.1l-9.6,5.9l10.5-4.2c0.2,0.6,0.6,1,1,1.5l-13,16.1l15.1-14c0.4,0.4,1,0.6,1.5,0.8l-2.9,12l4.8-11.3
	c0.4,0,1,0.2,1.5,0.2l1.7,22.6l1.5-22.9c0.4-0.2,0.8-0.2,1.3-0.4L38.6,51l-4.2-12c0.4-0.2,0.6-0.4,1-0.8l15.3,13.2L37.5,35.7
	c0.2-0.4,0.4-0.8,0.6-1.3l12,3.1L39,32.1c0-0.4,0.2-0.8,0.2-1.3L45.5,30.2z"/>
<g>
	<path class="st1" d="M57.2,13.9h5.2L57,39.5h14.7l-1.5,4.4H51L57.2,13.9z"/>
	<path class="st1" d="M84.1,31.3l-6.7,12.6h-5.7l16.4-30h6.7l4.2,30h-5.2l-1.5-12.6L84.1,31.3z M91.4,26.9c-0.8-6.5-0.8-6.3-0.8-8.8
		l0,0c-1.3,2.9-1.5,3.1-4.4,8.8H91.4z"/>
	<path class="st1" d="M104.4,34.9c0.2,3.4,2.3,5.2,6.3,5.2c3.6,0,5.7-1.5,5.7-4.4c0-2.5-1.5-3.8-5.7-5.5c-5.9-2.1-8-4.4-8-8.2
		c0-4.6,3.4-8.8,10.7-8.8c6.9,0,10.3,3.6,10.5,8.6h-5.5c-0.2-2.3-1.3-4.4-5.2-4.4c-2.9,0-4.8,1.5-4.8,4c0,1.9,1,2.9,5,4.4
		c6.1,2.1,8.8,4.6,8.8,9c0,4.8-2.9,9.2-11.7,9.2c-7.3,0-11.1-3.8-11.1-9.4h5C104.4,34.6,104.4,34.9,104.4,34.9z"/>
	<path class="st1" d="M145.7,31.3h-13.8l-1.7,8h15.5l-1.5,4.4h-20.1l6.3-30h19.5l-0.8,4.4h-14.3l-1.9,8.6h13.8L145.7,31.3z"/>
	<path class="st1" d="M226.9,31.3H213l-1.7,8.2h15.5l-1.5,4.4h-20.1l6.3-30h19.5l-0.8,4.4H216l-1.9,8.6h13.8L226.9,31.3z"/>
	<path class="st1" d="M156,31.3l-2.7,12.6H148l6.3-30h10.9c5.7,0,8.8,2.9,8.8,7.5c0,4.2-2.5,6.9-6.3,8c1.5,0.6,3.8,2.1,2.7,7.3
		c-0.8,3.6-1.3,5.9-1,7.1h-5c-0.2-1.3,0.2-3.6,0.8-7.1c0.8-3.6,0-5.5-3.8-5.5C161.5,31.3,156,31.3,156,31.3z M156.8,26.9h5.2
		c4,0,6.7-1.5,6.7-4.8c0-2.5-1.5-3.8-4.6-3.8h-5.5L156.8,26.9z"/>
	<path class="st1" d="M194.2,18.3h-9l1-4.4h23.3l-1,4.4h-9L194,43.9h-5.2L194.2,18.3z"/>
	<path class="st1" d="M235,13.9h5.2l-2.9,13.8c2.3-2.3,10.3-9.2,15.3-13.8h6.5l-14.7,12.8l8.8,17.2h-5.9l-6.9-14l-4.4,3.4l-2.3,10.7
		h-5.2L235,13.9z"/>
</g>
<path class="st2" d="M25.6,25.6c0,0.6-0.6,1.3-1.3,1.3s-1.3-0.6-1.3-1.3c0-0.6,0.6-1.3,1.3-1.3S25.6,24.8,25.6,25.6z"/>
<g>
	<path d="M66,52.9h-1.7v-3.4h-5.5v4.2h-1.7v-4.2h-5.5v3.4h-1.7v-4.8h7.1v-1h-6.5v-1.5h14.7V47h-6.5v1H66V52.9z M65,62.1h-1.7v-0.6
		H53.3v0.6h-1.7v-8h13.6v8H65z M56.6,50.4l-0.4,1.3c-1.3-0.2-2.5-0.4-3.8-0.4l0.4-1.3C54.3,50,55.6,50.2,56.6,50.4z M56.6,53.1
		c-1,0.2-2.3,0.4-3.8,0.6l-0.4-1.3c1.3,0,2.5-0.2,3.8-0.4L56.6,53.1z M57.2,57.1v-1.5H53v1.5H57.2z M57.2,60v-1.5H53V60H57.2z
		 M63.3,57.1v-1.5h-4.2v1.5H63.3z M63.3,60v-1.5h-4.2V60H63.3z M63.7,52.5l-0.4,1.3c-1.3-0.2-2.5-0.4-3.8-0.4L60,52
		C61.6,52,62.9,52.3,63.7,52.5z M63.7,51c-1.3,0.2-2.5,0.4-3.8,0.6l-0.4-1.3c1-0.2,2.3-0.2,3.6-0.4L63.7,51z"/>
	<path d="M84.7,46.6c-0.8,0.2-1.9,0.6-2.9,0.6v2.5h2.5v1.7h-2.5V52c1,1,1.9,2.1,2.5,3.4L83,56.7c-0.4-0.8-0.8-1.7-1.5-2.3v8h-1.5
		v-7.8c-0.8,1.7-1.7,3.1-2.5,3.8l-1-1.5c1.3-1.5,2.5-3.1,3.6-5.5h-3.4v-1.7h3.4v-2.3c-0.8,0.2-1.7,0.2-2.5,0.2L77,46
		c2.5-0.2,4.8-0.4,6.9-1L84.7,46.6z M93.5,57.3l-1.9,0.2v4.6H90v-4.4l-5.7,0.8l-0.2-1.7L90,56V45.3h1.7v10.5l1.7-0.2L93.5,57.3z
		 M89.1,53.7L87.9,55c-0.8-1-2.1-2.1-3.6-3.4l1-1.3C87,51.6,88.3,52.7,89.1,53.7z M89.5,49.1l-1.3,1.3c-1-1.3-2.3-2.3-3.4-3.1
		l1.3-1.3C87.4,47,88.5,48.1,89.5,49.1z"/>
	<path d="M110.1,60.6c0,1-0.6,1.7-1.9,1.7c-0.2,0-0.6,0-0.8,0l-0.6-1.7c0.2,0,0.6,0,1.5,0c0.2,0,0.2,0,0.2-0.2v-4.6
		c-0.6,0.8-1,1.5-1.7,1.9l-0.6-1c-0.2,2.7-0.6,4.6-1.3,5.9l-1.5-1c0.6-1.5,1-3.6,1-6.5v-9.2h5.5v14.9
		C109.9,60.6,110.1,60.6,110.1,60.6z M108.4,51.2v-4h-2.1v2.1l1-0.6C107.8,49.5,108.2,50.4,108.4,51.2z M108.4,52.7v-1l-1,0.8
		c-0.2-0.8-0.4-1.7-1-2.5v5.5C106.9,54.6,107.8,53.7,108.4,52.7z M120.6,60.9l-0.8,1.5c-1.7-0.4-3.1-1-4.4-2.1
		c-1,0.8-2.5,1.5-4.2,2.1l-0.8-1.5c1.5-0.4,2.7-1,3.8-1.9c-1-1-1.7-2.3-2.3-4.2h-0.8v-1.7h8.6V55c-0.8,1.7-1.7,3.1-2.7,4
		C117.6,59.6,119.1,60.2,120.6,60.9z M120.4,52.3h-2.7c-0.4,0-0.6-0.2-0.8-0.4s-0.4-0.6-0.4-0.8v-3.6h-2.7v0.8
		c0,1.9-0.6,3.4-1.9,4.6l-1.5-1c1-0.8,1.5-1.9,1.5-3.6v-2.5h6.1v4.6c0,0.2,0,0.2,0.2,0.2h2.1v1.7C120.1,52.3,120.4,52.3,120.4,52.3z
		 M117.4,55h-4c0.6,1.3,1.3,2.3,1.9,2.9C116.2,56.9,117,55.8,117.4,55z"/>
	<path d="M136.3,45.5c-0.2,0.6-0.6,1.5-1,2.3l-0.6,1.5v13h-1.7v-9.9c-0.4,0.8-1,1.3-1.5,1.9l-1-2.1c1.7-1.9,2.9-4.4,4-7.1
		L136.3,45.5z M147.6,51l-1,1.7l-0.4-0.2c0,0.6,0,2.3-0.2,4.6s-0.2,3.8-0.4,4.2c-0.2,0.4-0.4,0.6-0.6,1c-0.4,0.2-0.8,0.4-1.5,0.4
		c-0.4,0-1,0-1.9,0l-0.6-2.1c0.6,0,1,0,1.5,0c0.8,0,1.3,0,1.5-0.2s0.2-1.3,0.4-2.9c0.2-1.7,0.2-3.1,0.2-3.8h-2.9
		c-0.2,4-1.9,6.9-5,8.6l-1.3-1.5c2.7-1.5,4.2-3.8,4.4-7.3h-3.1V52c-0.2,0.2-0.2,0.2-0.4,0.4l-1-1.5c1.5-1.3,2.7-3.4,3.8-5.9l1.7,0.4
		c-1,2.7-2.3,4.8-3.8,6.3h9c-1.3-1.3-2.3-2.9-2.9-4.8h-1.7v-1.7h2.9C144.7,48.1,145.7,50,147.6,51z"/>
	<path d="M174.2,48.7h-9.4c-0.2,0.4-0.6,1-1,1.7h9v10.5c0,0.4-0.2,0.8-0.4,1s-0.6,0.4-1,0.4c-0.4,0-0.8,0-1.5,0s-1.3,0-1.7,0
		l-0.8-1.7c0.8,0,1.9,0,3.1,0c0.2,0,0.4-0.2,0.4-0.4v-1.9h-8.6c-0.4,1.5-1,2.7-2.1,4l-1.3-1c1.5-1.5,2.1-2.9,2.1-4.2v-3.1
		c-0.8,0.8-1.7,1.7-2.5,2.1l-1.3-1.3c2.3-1.5,4.2-3.6,5.7-5.9h-5.5v-1.7h6.3c0.4-0.6,0.6-1.5,0.8-1.9l1.7,0.2
		c-0.2,0.4-0.4,1-0.6,1.7h8.6V48.7z M171.3,53.5V52h-8.4v1.5H171.3z M171.3,56.7v-1.5h-8.4v1.5H171.3z"/>
	<path d="M189.3,51.2c1,1.5,1.7,3.1,1.7,4.4c0,1.9-0.8,2.7-2.7,2.7c-0.2,0-0.4,0-0.6,0l-0.4-1.7c0.2,0,0.6,0,0.8,0
		c0.4,0,0.8,0,0.8-0.2c0.2-0.2,0.2-0.4,0.2-0.8c0-1.5-0.6-2.9-1.7-4.4c0.4-0.8,0.8-2.3,1.3-4h-2.1v14.9h-1.7V45.5h5.5v1.7
		C190.2,48.7,189.8,50,189.3,51.2z M200.2,53.7h-6.9V60c0.8-0.2,1.9-0.6,2.7-1v1.9c-1.7,0.8-3.1,1.3-4.4,1.5l-0.6-1.5
		c0.2-0.2,0.4-0.4,0.4-0.8V45.5h8.6v8.2H200.2z M198.6,48.9v-1.7h-5.2v1.7H198.6z M198.6,52v-1.7h-5.2V52H198.6z M201.5,60.9l-1,1.5
		c-2.7-1.7-4.6-4.2-5.5-7.3l1.5-0.4c0.2,0.8,0.4,1.5,0.8,2.1c0.8-0.6,1.7-1.5,2.5-2.3l1.3,1c-1,1.3-1.9,2.1-2.7,2.7
		C199.2,59.2,200.2,60.2,201.5,60.9z"/>
	<path d="M218.5,45.8c-1.3,3.4-3.4,6.3-6.1,8.6l-1-1.5c2.5-1.9,4.4-4.6,5.7-7.8L218.5,45.8z M227.1,61.3l-1.5,1
		c-0.4-0.8-0.6-1.7-1-2.1c-2.9,0.6-6.5,1.3-10.9,1.9l-0.4-1.5c1.7-1.3,3.6-4.4,5.9-9.9l1.7,0.4c-1.5,3.8-3.1,6.7-4.8,8.8
		c2.9-0.4,5.5-0.8,7.8-1.5c-0.4-0.6-1-1.7-2.1-2.9l1.5-0.8C224.8,56.9,226,59,227.1,61.3z M228.3,52.9l-1,1.5
		c-2.3-1.7-4.2-4.2-5.2-7.3h-1.5v-1.7h2.7C224.4,48.7,226,51.2,228.3,52.9z"/>
	<path d="M254.5,60c0,1.5-0.6,2.3-2.1,2.3c-1.3,0-2.3,0-2.9,0l-0.4-1.7c1.5,0,2.5,0,2.9,0c0.6,0,0.8-0.2,0.8-0.4V47.4h-14.5v-1.7
		h16.1V60z M251.2,50.4h-12.4v-1.7h12.4V50.4z M249.9,58.8h-10.1v-6.5h10.1V58.8z M248.3,57.1v-3.4h-6.7v3.4H248.3z"/>
</g>
</svg>
