<?xml version="1.0" encoding="utf-8"?>
<!-- Generator: Adobe Illustrator 25.2.1, SVG Export Plug-In . SVG Version: 6.00 Build 0)  -->
<svg version="1.1" id="圖層_1" xmlns="http://www.w3.org/2000/svg" xmlns:xlink="http://www.w3.org/1999/xlink" x="0px" y="0px" width="112" height="183"
	 viewBox="0 0 112 183" style="enable-background:new 0 0 112 183;" xml:space="preserve">
<style type="text/css">
	.st0{fill:#194999;}
	.st1{fill:#C78C0E;}
	.st2{fill:#FFFFFF;}
	.st3{fill:#D20000;}
	.st4{fill:#199976;}
</style>
<rect x="0.1" y="92.1" class="st0" width="56" height="44.9"/>
<rect x="0.1" y="46.3" class="st1" width="56" height="44.9"/>
<rect x="55.9" y="46.3" class="st2" width="56" height="44.9"/>
<g>
	<path class="st2" d="M20.3,71.8c0,2.9-1.7,4.3-5.1,4.3c-2.4,0-3.9-1.3-4.7-3.8l1.8-0.7c0.3,0.9,0.6,1.6,1.1,2
		c0.4,0.5,1,0.7,1.8,0.7c2,0,3.1-0.8,3.1-2.5c0-1.1-1.2-2.2-3.6-3.3c-1.2-0.6-2.1-1.1-2.6-1.5c-0.8-0.7-1.2-1.6-1.2-2.5
		c0-1.2,0.4-2.1,1.2-2.9c0.8-0.7,2-1.1,3.4-1.1c2.4,0,3.9,1,4.6,3.1l-1.7,0.9c-0.6-1.5-1.5-2.2-2.9-2.2c-0.9,0-1.6,0.2-2,0.7
		c-0.4,0.4-0.6,0.9-0.6,1.5c0,0.5,0.3,1,0.9,1.4c0.4,0.3,1,0.6,1.9,1c1.4,0.6,2.4,1.2,3.1,1.8C19.8,69.6,20.3,70.6,20.3,71.8z"/>
	<path class="st2" d="M33,75.9h-1.8V65.4l-2.5,10.5h-1.2L25,65.4v10.5h-1.8V60.7h2.2l2.8,11l2.8-11h2.2v15.2
		C33.2,75.9,33,75.9,33,75.9z"/>
	<path class="st2" d="M45.2,68.4c0,2.4-0.6,4.2-1.7,5.5s-2.7,2-4.7,2h-2.9V60.7h2.9c2.1,0,3.6,0.6,4.7,1.7
		C44.6,63.6,45.2,65.6,45.2,68.4z M43.2,68.4c0-2.2-0.4-3.8-1.1-4.7c-0.7-0.8-1.7-1.3-3.2-1.3h-1v11.7h0.9c1.3,0,2.3-0.5,3.1-1.5
		C42.8,71.6,43.2,70.2,43.2,68.4z"/>
</g>
<rect x="0.1" y="-0.1" class="st3" width="56" height="44.9"/>
<rect x="55.9" y="-0.1" class="st2" width="56" height="44.9"/>
<g>
	<path class="st2" d="M11.6,14.8h13.6v1.3h-6v1.1h7v4.1h-1.5v-2.8h-5.5v4.3h-1.6v-4.3H12v3h-1.6v-4.2h7.1v-1.1h-6L11.6,14.8
		L11.6,14.8z M12.5,23.2h12.2v7.2h-1.5v-0.6H14v0.6h-1.5V23.2z M13,19.3h3.8v1.1H13V19.3z M13,21.1h3.8v1.1H13V21.1z M14,25.9h3.7
		v-1.4H14V25.9z M14,28.6h3.7v-1.5H14V28.6z M19.2,24.5v1.4h4v-1.4H19.2z M19.2,28.6h4v-1.5h-4V28.6z M20,19.3h3.9v1.1H20V19.3z
		 M20,21.1h3.9v1.1H20V21.1z"/>
	<path class="st2" d="M32.2,14l1.4,0.4c0.2,0,0.3,0.1,0.3,0.2c0,0.1-0.1,0.3-0.3,0.4l-0.4,1h2.7v6.3c0.2-0.3,0.4-0.6,0.6-0.8
		l1.3,0.7c0.1,0.1,0.2,0.2,0.2,0.4c0,0.2-0.2,0.2-0.6,0.3c-0.5,0.7-1,1.3-1.5,1.9v4.3c0,0.8-0.3,1.3-1,1.5c-0.5,0.2-1.1,0.3-1.6,0.3
		l-0.6-1.6h1.2c0.3,0,0.5-0.2,0.5-0.7v-2.1c-1.5,1.5-3.2,2.8-5.1,3.8l-1.1-1.4c1.9-0.9,3.3-1.8,4.4-2.8c0.2-0.2,0.5-0.4,0.7-0.6
		c-1.1,0.2-2.4,0.4-4.1,0.7c-0.1,0.2-0.2,0.3-0.3,0.3c-0.1,0-0.2-0.1-0.2-0.2l-0.4-1.6c0.4,0,0.9-0.1,1.3-0.1v-8.4h2.1L32.2,14z
		 M31.1,18.7h3.1v-1.4h-3.1V18.7z M31.1,21.2h3.1v-1.3h-3.1C31.1,19.9,31.1,21.2,31.1,21.2z M31.1,24.1c1.1-0.1,2.1-0.3,3.1-0.4
		v-1.3h-3.1C31.1,22.4,31.1,24.1,31.1,24.1z M36.5,18.6h4.7v-4.4l1.8,0.2c0.2,0,0.3,0.1,0.3,0.2c0,0.2-0.1,0.3-0.4,0.5v3.5h1.5v1.5
		h-1.5v8.4c0,0.7-0.2,1.2-0.7,1.6c-0.4,0.4-1.3,0.5-2.8,0.5L38.7,29h1.6c0.6,0,0.9-0.3,0.9-0.8V20h-4.7
		C36.5,19.9,36.5,18.6,36.5,18.6z M38.7,22.7c0.6,0.8,1.2,1.7,1.8,2.8l-1.2,1.1c-0.6-1.2-1.1-2.1-1.7-2.8L38.7,22.7z"/>
</g>
<rect x="0.1" y="138.3" class="st4" width="56" height="44.9"/>
<rect x="55.9" y="138.3" class="st2" width="56" height="44.9"/>
<g>
	<path class="st2" d="M13.6,151l1.4,0.5c0.2,0.1,0.3,0.1,0.3,0.2s-0.1,0.2-0.4,0.4c-0.4,0.8-0.9,1.6-1.5,2.5c1-0.1,2-0.2,3-0.2
		c-0.2-0.5-0.5-0.9-0.8-1.4l1.2-0.4c0.9,1.2,1.5,2.4,1.8,3.5l-1.5,0.3c-0.1-0.3-0.1-0.5-0.2-0.8c-1.4,0.2-3.4,0.4-6,0.7
		c-0.1,0.2-0.2,0.3-0.3,0.3s-0.2-0.1-0.2-0.2l-0.3-1.5c0.6,0,1.1-0.1,1.6-0.1c0.3-0.5,0.6-1,0.7-1.4C13,152.6,13.3,151.8,13.6,151z
		 M12,157.2h5.8v8.2c0,0.7-0.3,1.2-1,1.4c-0.5,0.2-1.1,0.2-1.6,0.2l-0.6-1.5h1.2c0.4,0,0.5-0.2,0.5-0.5v-1.2h-3.6v3.2h-1.5v-9.8
		L12,157.2L12,157.2z M12.7,159.8h3.6v-1.2h-3.6C12.7,158.6,12.7,159.8,12.7,159.8z M12.7,162.5h3.6v-1.4h-3.6
		C12.7,161.1,12.7,162.5,12.7,162.5z M19.1,151.6l1.8,0.2c0.2,0,0.4,0.1,0.4,0.3c0,0.1-0.1,0.3-0.3,0.5c-0.2,0.1-0.2,0.3-0.2,0.6
		v1.2c0.5-0.1,0.9-0.2,1.3-0.4c0.8-0.3,1.7-0.7,2.7-1.2l1.1,1.1C26,154,26,154,26,154.1s-0.1,0.1-0.1,0.1l-0.3-0.1
		c-0.1,0-0.2,0-0.4,0.1c-1.5,0.7-3,1.2-4.5,1.5v0.4c0,0.5,0.1,0.8,0.2,1.1c0.2,0.2,0.5,0.3,1,0.3h1.3c0.5,0,0.9-0.1,1.2-0.3
		c0.3-0.2,0.5-0.6,0.7-1.4l1.5,0.6c-0.3,1-0.7,1.7-1.1,2s-0.8,0.4-1.3,0.4h-3c-0.7,0-1.3-0.2-1.6-0.7c-0.3-0.4-0.5-1-0.5-1.8
		C19.1,156.3,19.1,151.6,19.1,151.6z M19.1,159.4l1.8,0.2c0.2,0,0.4,0.1,0.4,0.2c0,0.1-0.1,0.3-0.3,0.5c-0.2,0.1-0.2,0.3-0.2,0.6v1
		c0.5-0.1,1-0.2,1.4-0.4c0.8-0.2,1.7-0.6,2.7-1.1l1.1,1.1c0.1,0.1,0.1,0.2,0.1,0.2c0,0.1-0.1,0.1-0.1,0.1l-0.3-0.1
		c-0.1,0-0.2,0-0.4,0.1c-1.5,0.6-3,1.1-4.6,1.4v0.8c0,0.5,0.1,0.8,0.2,1.1c0.2,0.2,0.5,0.3,1,0.3H23c0.5,0,0.9-0.1,1.2-0.3
		s0.5-0.6,0.7-1.4l1.5,0.6c-0.3,1.1-0.7,1.8-1.1,2.1s-0.8,0.4-1.3,0.4h-2.8c-0.7,0-1.3-0.2-1.6-0.6c-0.3-0.4-0.5-1-0.5-1.8
		C19.1,164.4,19.1,159.4,19.1,159.4z"/>
	<path class="st2" d="M29.3,155.4c1.1,0.5,2,1.1,2.7,1.7l-1,1.1c-0.9-0.7-1.8-1.2-2.8-1.8L29.3,155.4z M31,159.8l0.9,1.1
		c-0.7,1.9-1.4,3.6-2.1,5.2c0,0.4-0.1,0.6-0.3,0.6l-1.4-1C29.2,163.9,30.2,162,31,159.8z M30.2,151.2c1,0.6,1.9,1.1,2.6,1.8l-1,1
		c-0.8-0.6-1.7-1.2-2.7-1.7L30.2,151.2z M33.5,151.6h10.6v1.4h-3.5l-0.9,2h3.9v6.7h-3v3.5c0,1-0.2,1.6-0.6,1.8
		c-0.3,0.2-1,0.3-2.2,0.3l-0.5-1.4c0.9,0,1.4,0,1.5-0.1c0.2-0.1,0.2-0.3,0.2-0.6v-3.6h-3.3v-6.7h2.2l0.8-2h-3.8v1.6
		c0,2.5-0.2,4.7-0.6,6.7c-0.3,1.5-0.8,3.3-1.6,5.6l-1.5-0.7c0.8-2,1.3-3.7,1.6-5.2c0.4-2.2,0.6-4.3,0.6-6.4L33.5,151.6L33.5,151.6z
		 M36.6,162.3l1.1,0.7c0.2,0.1,0.3,0.2,0.3,0.3s-0.1,0.2-0.3,0.2c-0.5,1-1.1,2-1.8,3l-1.4-0.9C35.2,164.6,35.9,163.5,36.6,162.3z
		 M37.3,157.6h4.9v-1.4h-4.9V157.6z M42.2,160.3V159h-4.9v1.3H42.2z M42.5,162.3c0.7,1.1,1.5,2.1,2.5,3l-1.4,1.1
		c-0.8-0.9-1.5-2-2.2-3.4L42.5,162.3z"/>
</g>
<g>
	<path class="st1" d="M77,71.8c0,2.9-1.7,4.3-5.1,4.3c-2.4,0-3.9-1.3-4.7-3.8l1.8-0.7c0.3,0.9,0.6,1.6,1.1,2c0.4,0.5,1,0.7,1.8,0.7
		c2,0,3.1-0.8,3.1-2.5c0-1.1-1.2-2.2-3.6-3.3c-1.2-0.6-2.1-1.1-2.6-1.5c-0.8-0.7-1.2-1.6-1.2-2.5c0-1.2,0.4-2.1,1.2-2.9
		c0.8-0.7,2-1.1,3.4-1.1c2.4,0,3.9,1,4.6,3.1l-1.7,0.9c-0.6-1.5-1.5-2.2-2.9-2.2c-0.9,0-1.6,0.2-2,0.7c-0.4,0.4-0.6,0.9-0.6,1.5
		c0,0.5,0.3,1,0.9,1.4c0.4,0.3,1,0.6,1.9,1c1.4,0.6,2.4,1.2,3.1,1.8C76.5,69.6,77,70.6,77,71.8z"/>
	<path class="st1" d="M89.6,75.9h-1.8V65.4l-2.5,10.5h-1.2l-2.5-10.5v10.5h-1.8V60.7H82l2.8,11l2.8-11h2.2v15.2
		C89.8,75.9,89.6,75.9,89.6,75.9z"/>
	<path class="st1" d="M101.8,68.4c0,2.4-0.6,4.2-1.7,5.5s-2.7,2-4.7,2h-2.9V60.7h2.9c2.1,0,3.6,0.6,4.7,1.7
		C101.3,63.6,101.8,65.6,101.8,68.4z M99.8,68.4c0-2.2-0.4-3.8-1.1-4.7c-0.7-0.8-1.7-1.3-3.2-1.3h-0.9v11.7h0.9
		c1.3,0,2.3-0.5,3.1-1.5S99.8,70.2,99.8,68.4z"/>
</g>
<g>
	<path class="st3" d="M68.3,14.8h13.6v1.3h-6v1.1h7v4.1h-1.5v-2.8h-5.5v4.3h-1.6v-4.3h-5.6v3h-1.6v-4.2h7.1v-1.1h-6L68.3,14.8
		L68.3,14.8z M69.1,23.2h12.2v7.2h-1.4v-0.6h-9.3v0.6h-1.5C69.1,30.4,69.1,23.2,69.1,23.2z M69.7,19.3h3.8v1.1h-3.8V19.3z
		 M69.7,21.1h3.8v1.1h-3.8V21.1z M70.6,25.9h3.7v-1.4h-3.7V25.9z M70.6,28.6h3.7v-1.5h-3.7V28.6z M75.9,24.5v1.4h4v-1.4H75.9z
		 M75.9,28.6h4v-1.5h-4V28.6z M76.6,19.3h3.9v1.1h-3.9V19.3z M76.6,21.1h3.9v1.1h-3.9V21.1z"/>
	<path class="st3" d="M88.8,14l1.4,0.4c0.2,0,0.3,0.1,0.3,0.2c0,0.1-0.1,0.3-0.3,0.4l-0.4,1h2.7v6.3c0.2-0.3,0.4-0.6,0.6-0.8
		l1.3,0.7c0.1,0.1,0.2,0.2,0.2,0.4c0,0.2-0.2,0.2-0.6,0.3c-0.5,0.7-1,1.3-1.5,1.9v4.3c0,0.8-0.3,1.3-1,1.5c-0.5,0.2-1.1,0.3-1.6,0.3
		l-0.6-1.6h1.2c0.3,0,0.5-0.2,0.5-0.7v-2.1c-1.5,1.5-3.2,2.8-5.1,3.8l-1.1-1.4c1.9-0.9,3.3-1.8,4.4-2.8c0.2-0.2,0.5-0.4,0.7-0.6
		c-1.1,0.2-2.4,0.4-4.1,0.7c-0.1,0.2-0.2,0.3-0.3,0.3s-0.2-0.1-0.2-0.2l-0.5-1.8c0.4,0,0.9-0.1,1.3-0.1V16h2.1L88.8,14z M87.7,18.7
		h3.1v-1.4h-3.1V18.7z M87.7,21.2h3.1v-1.3h-3.1V21.2z M87.7,24.1c1.1-0.1,2.1-0.3,3.1-0.4v-1.3h-3.1V24.1z M93.1,18.6h4.7v-4.4
		l1.8,0.2c0.2,0,0.3,0.1,0.3,0.2c0,0.2-0.1,0.3-0.4,0.5v3.5h1.5v1.5h-1.5v8.4c0,0.7-0.2,1.2-0.7,1.6c-0.4,0.4-1.3,0.5-2.8,0.5
		L95.3,29h1.6c0.6,0,0.9-0.3,0.9-0.8V20h-4.7C93.1,19.9,93.1,18.6,93.1,18.6z M95.4,22.7c0.6,0.8,1.2,1.7,1.8,2.8L96,26.6
		c-0.6-1.2-1.1-2.1-1.7-2.8L95.4,22.7z"/>
</g>
<g>
	<path class="st4" d="M70.3,151l1.4,0.5c0.2,0.1,0.3,0.1,0.3,0.2s-0.1,0.2-0.4,0.4c-0.4,0.8-0.9,1.6-1.5,2.5c1-0.1,2-0.2,3-0.2
		c-0.2-0.5-0.5-0.9-0.8-1.4l1.2-0.4c0.9,1.2,1.5,2.4,1.8,3.5l-1.5,0.3c-0.1-0.3-0.1-0.5-0.2-0.8c-1.4,0.2-3.4,0.4-6,0.7
		c-0.1,0.2-0.2,0.3-0.3,0.3c-0.1,0-0.2-0.1-0.2-0.2l-0.3-1.5c0.6,0,1.1-0.1,1.6-0.1c0.3-0.5,0.6-1,0.7-1.4
		C69.6,152.6,70,151.8,70.3,151z M68.6,157.2h5.8v8.2c0,0.7-0.3,1.2-1,1.4c-0.5,0.2-1.1,0.2-1.6,0.2l-0.6-1.5h1.2
		c0.4,0,0.5-0.2,0.5-0.5v-1.2h-3.6v3.2h-1.4v-9.8L68.6,157.2L68.6,157.2z M69.4,159.8H73v-1.2h-3.6V159.8z M69.4,162.5H73v-1.4h-3.6
		V162.5z M75.7,151.6l1.8,0.2c0.2,0,0.4,0.1,0.4,0.3c0,0.1-0.1,0.3-0.3,0.5c-0.2,0.1-0.2,0.3-0.2,0.6v1.2c0.5-0.1,0.9-0.2,1.3-0.4
		c0.8-0.3,1.7-0.7,2.7-1.2l1.1,1.1c0.1,0.1,0.1,0.1,0.1,0.2c0,0.1-0.1,0.1-0.1,0.1l-0.3-0.1c-0.1,0-0.2,0-0.4,0.1
		c-1.5,0.7-3,1.2-4.5,1.5v0.4c0,0.5,0.1,0.8,0.2,1.1c0.2,0.2,0.5,0.3,1,0.3h1.3c0.5,0,0.9-0.1,1.2-0.3c0.3-0.2,0.5-0.6,0.7-1.4
		l1.5,0.6c-0.3,1-0.7,1.7-1.1,2s-0.8,0.4-1.3,0.4h-3c-0.7,0-1.3-0.2-1.6-0.7c-0.3-0.4-0.5-1-0.5-1.8
		C75.7,156.3,75.7,151.6,75.7,151.6z M75.7,159.4l1.8,0.2c0.2,0,0.4,0.1,0.4,0.2c0,0.1-0.1,0.3-0.3,0.5c-0.2,0.1-0.2,0.3-0.2,0.6v1
		c0.5-0.1,1-0.2,1.4-0.4c0.8-0.2,1.7-0.6,2.7-1.1l1.1,1.1c0.1,0.1,0.1,0.2,0.1,0.2c0,0.1-0.1,0.1-0.1,0.1l-0.3-0.1
		c-0.1,0-0.2,0-0.4,0.1c-1.5,0.6-3,1.1-4.6,1.4v0.8c0,0.5,0.1,0.8,0.2,1.1c0.2,0.2,0.5,0.3,1,0.3h1.2c0.5,0,0.9-0.1,1.2-0.3
		c0.3-0.2,0.5-0.6,0.7-1.4l1.5,0.6c-0.3,1.1-0.7,1.8-1.1,2.1s-0.8,0.4-1.3,0.4h-2.8c-0.7,0-1.3-0.2-1.6-0.6c-0.3-0.4-0.5-1-0.5-1.8
		L75.7,159.4L75.7,159.4z"/>
	<path class="st4" d="M86,155.4c1.1,0.5,2,1.1,2.7,1.7l-1,1.1c-0.9-0.7-1.8-1.2-2.8-1.8L86,155.4z M87.7,159.8l0.9,1.1
		c-0.7,1.9-1.4,3.6-2.1,5.2c0,0.4-0.1,0.6-0.3,0.6l-1.4-1C85.9,163.9,86.8,162,87.7,159.8z M86.8,151.2c1,0.6,1.9,1.1,2.6,1.8l-1,1
		c-0.8-0.6-1.7-1.2-2.7-1.7L86.8,151.2z M90.2,151.6h10.6v1.4h-3.5l-0.9,2h3.9v6.7h-3v3.5c0,1-0.2,1.6-0.6,1.8
		c-0.3,0.2-1,0.3-2.2,0.3l-0.5-1.4c0.9,0,1.4,0,1.5-0.1c0.2-0.1,0.2-0.3,0.2-0.6v-3.6h-3.3v-6.7h2.2l0.8-2h-3.8v1.6
		c0,2.5-0.2,4.7-0.6,6.7c-0.3,1.5-0.8,3.3-1.6,5.6l-1.5-0.7c0.8-2,1.3-3.7,1.6-5.2c0.4-2.2,0.6-4.3,0.6-6.4L90.2,151.6L90.2,151.6z
		 M93.2,162.3l1.1,0.7c0.2,0.1,0.3,0.2,0.3,0.3s-0.1,0.2-0.3,0.2c-0.5,1-1.1,2-1.8,3l-1.4-0.9C91.8,164.6,92.6,163.5,93.2,162.3z
		 M93.9,157.6h4.9v-1.4h-4.9V157.6z M98.9,160.3V159H94v1.3H98.9z M99.2,162.3c0.7,1.1,1.5,2.1,2.5,3l-1.4,1.1
		c-0.8-0.9-1.5-2-2.2-3.4L99.2,162.3z"/>
</g>
<g>
	<g>
		<path class="st2" d="M19.1,109.3c0,1.8-1.5,2.8-4.5,2.8c-2.1,0-3.5-0.8-4.1-2.5l1.6-0.5c0.3,0.6,0.6,1,0.9,1.3
			c0.4,0.3,0.9,0.4,1.6,0.4c1.8,0,2.7-0.5,2.7-1.6c0-0.7-1.1-1.4-3.2-2.1c-1.1-0.4-1.9-0.7-2.3-1c-0.7-0.5-1.1-1-1.1-1.6
			c0-0.8,0.4-1.4,1.1-1.8c0.7-0.5,1.7-0.7,3-0.7c2.1,0,3.4,0.7,4.1,2l-1.5,0.6c-0.5-1-1.4-1.4-2.5-1.4c-0.8,0-1.4,0.1-1.8,0.4
			c-0.4,0.2-0.5,0.6-0.5,0.9c0,0.3,0.3,0.6,0.8,0.9c0.3,0.2,0.9,0.4,1.7,0.7c1.2,0.4,2.1,0.8,2.7,1.1
			C18.7,107.9,19.1,108.6,19.1,109.3z"/>
		<path class="st2" d="M29,112h-7.6v-9.8H29v1.1h-5.9v3.1h5.1v1.2h-5.1v3.3H29V112z"/>
		<path class="st2" d="M40,112h-1.6v-6.8l-2.2,6.8H35l-2.2-6.8v6.8h-1.6v-9.8h1.9l2.4,7l2.4-7H40V112z"/>
		<path class="st2" d="M44.2,112h-1.7v-9.8h1.7V112z"/>
	</g>
	<g>
		<path class="st2" d="M22.7,119.6c0,1.8-1.4,2.7-4.3,2.7h-2.3v4.3h-1.7v-9.8h4C21.3,116.8,22.7,117.8,22.7,119.6z M21,119.6
			c0-1.1-0.9-1.6-2.8-1.6h-2.1v3.2h2.1C20.1,121.2,21,120.6,21,119.6z"/>
		<path class="st2" d="M32.6,118.9l-1.4,0.5c-0.5-1-1.3-1.5-2.4-1.5c-0.8,0-1.5,0.3-2.1,1c-0.6,0.7-0.8,1.7-0.8,2.9
			c0,1.2,0.3,2.1,0.8,2.8c0.5,0.6,1.1,0.9,1.8,0.9c0.7,0,1.2-0.2,1.6-0.5c0.3-0.3,0.6-0.7,0.9-1.3l1.4,0.4c-0.3,0.8-0.8,1.4-1.4,1.8
			c-0.6,0.4-1.5,0.7-2.5,0.7c-1.2,0-2.3-0.4-3.1-1.2c-0.9-0.9-1.3-2.1-1.3-3.7c0-1.6,0.5-2.9,1.4-3.8c0.9-0.9,2-1.3,3.3-1.3
			C30.7,116.7,32,117.5,32.6,118.9z"/>
		<path class="st2" d="M42.7,123.8c0,0.9-0.5,1.6-1.4,2.1c-0.8,0.4-1.8,0.7-3,0.7h-3.7v-9.8h3.5c1.3,0,2.2,0.2,3,0.6
			c0.9,0.4,1.3,1.1,1.3,2.1c0,1-0.6,1.7-1.8,2C42,121.9,42.7,122.7,42.7,123.8z M40.7,119.5c0-1-0.9-1.5-2.8-1.5h-1.6v3h1.6
			C39.7,121,40.7,120.5,40.7,119.5z M41,123.8c0-0.7-0.3-1.2-0.9-1.4c-0.4-0.2-1.1-0.3-2-0.3h-1.8v3.4h1.8
			C40,125.5,41,124.9,41,123.8z"/>
	</g>
</g>
<rect x="56" y="92.1" class="st2" width="56" height="44.9"/>
<g>
	<g>
		<path class="st0" d="M75,109.3c0,1.8-1.5,2.8-4.5,2.8c-2.1,0-3.5-0.8-4.1-2.5l1.6-0.5c0.3,0.6,0.6,1,0.9,1.3
			c0.4,0.3,0.9,0.4,1.6,0.4c1.8,0,2.7-0.5,2.7-1.6c0-0.7-1.1-1.4-3.2-2.1c-1.1-0.4-1.9-0.7-2.3-1c-0.7-0.5-1.1-1-1.1-1.6
			c0-0.8,0.4-1.4,1.1-1.8c0.7-0.5,1.7-0.7,3-0.7c2.1,0,3.4,0.7,4.1,2l-1.5,0.6c-0.5-1-1.4-1.4-2.5-1.4c-0.8,0-1.4,0.1-1.8,0.4
			c-0.4,0.2-0.5,0.6-0.5,0.9c0,0.3,0.3,0.6,0.8,0.9c0.3,0.2,0.9,0.4,1.7,0.7c1.2,0.4,2.1,0.8,2.7,1.1C74.5,107.9,75,108.6,75,109.3z
			"/>
		<path class="st0" d="M84.9,112h-7.6v-9.8h7.6v1.1H79v3.1h5.1v1.2H79v3.3h5.9V112z"/>
		<path class="st0" d="M95.8,112h-1.6v-6.8L92,112h-1.1l-2.2-6.8v6.8h-1.6v-9.8H89l2.4,7l2.4-7h1.9V112z"/>
		<path class="st0" d="M100.1,112h-1.7v-9.8h1.7V112z"/>
	</g>
	<g>
		<path class="st0" d="M78.6,119.6c0,1.8-1.4,2.7-4.3,2.7H72v4.3h-1.7v-9.8h4C77.2,116.8,78.6,117.8,78.6,119.6z M76.9,119.6
			c0-1.1-0.9-1.6-2.8-1.6H72v3.2h2.1C76,121.2,76.9,120.6,76.9,119.6z"/>
		<path class="st0" d="M88.5,118.9l-1.4,0.5c-0.5-1-1.3-1.5-2.4-1.5c-0.8,0-1.5,0.3-2.1,1c-0.6,0.7-0.8,1.7-0.8,2.9
			c0,1.2,0.3,2.1,0.8,2.8c0.5,0.6,1.1,0.9,1.8,0.9c0.7,0,1.2-0.2,1.6-0.5c0.3-0.3,0.6-0.7,0.9-1.3l1.4,0.4c-0.3,0.8-0.8,1.4-1.4,1.8
			c-0.6,0.4-1.5,0.7-2.5,0.7c-1.2,0-2.3-0.4-3.1-1.2c-0.9-0.9-1.3-2.1-1.3-3.7c0-1.6,0.5-2.9,1.4-3.8c0.9-0.9,2-1.3,3.3-1.3
			C86.6,116.7,87.9,117.5,88.5,118.9z"/>
		<path class="st0" d="M98.6,123.8c0,0.9-0.5,1.6-1.4,2.1c-0.8,0.4-1.8,0.7-3,0.7h-3.7v-9.8H94c1.3,0,2.2,0.2,3,0.6
			c0.9,0.4,1.3,1.1,1.3,2.1c0,1-0.6,1.7-1.8,2C97.8,121.9,98.6,122.7,98.6,123.8z M96.5,119.5c0-1-0.9-1.5-2.8-1.5h-1.6v3h1.6
			C95.6,121,96.5,120.5,96.5,119.5z M96.8,123.8c0-0.7-0.3-1.2-0.9-1.4c-0.4-0.2-1.1-0.3-2-0.3h-1.8v3.4H94
			C95.9,125.5,96.8,124.9,96.8,123.8z"/>
	</g>
</g>
</svg>
