<?xml version="1.0" encoding="utf-8"?>
<!-- Generator: Adobe Illustrator 23.0.6, SVG Export Plug-In . SVG Version: 6.00 Build 0)  -->
<svg version="1.1" id="Layer_1" xmlns:sketch="http://www.bohemiancoding.com/sketch/ns"
	 xmlns="http://www.w3.org/2000/svg" xmlns:xlink="http://www.w3.org/1999/xlink" x="0px" y="0px" width="260px" height="80px" viewBox="0 0 260 53.8"
	 style="enable-background:new 0 0 260 53.8;" xml:space="preserve">
<style type="text/css">
	.st0{fill:#E50012;}
	.st1{fill:#231815;}
	.st2{fill:#FFFFFF;}
</style>
<title>ltt_logo</title>
<desc>雷科股份有限公司</desc>
<path class="st0" d="M41.9,26.7h214v-1.2H40.6l-4.2-0.7c0-0.4-0.2-0.7-0.4-0.9l9.1-5.6l-10,3.9c-0.2-0.2-0.4-0.5-0.5-0.7l10.2-13
	L32.7,19.5c0,0-0.4-0.2-0.5-0.2l2.6-11.1l-4.4,10.2c-0.2,0-0.5-0.2-0.7-0.2l-1.4-13l-1.2,12.8c-0.4,0-0.5,0-0.9,0.2l-5.4-9.5
	L24.3,19c-0.4,0.2-0.7,0.4-0.9,0.5L11.5,9l10,12.1c-0.4,0.4-0.5,0.7-0.9,1.2l-9.5-2.6l8.8,4.2c-0.2,0.5-0.4,0.9-0.4,1.4L5,26.7
	l14.6,1.1c0,0.5,0.2,1.2,0.4,1.8l-8.1,4.9l8.8-3.5c0.2,0.5,0.5,0.9,0.9,1.2L10.6,45.7l12.6-11.8c0.4,0.4,0.9,0.5,1.2,0.7l-2.5,10
	l4-9.5c0.4,0,0.9,0.2,1.2,0.2l1.4,13.7l1.2-13.9c0.4-0.2,0.7-0.2,1.1-0.4l5.1,9.3l-3.5-10c0.4-0.2,0.5-0.4,0.9-0.7l12.8,11.1
	L35.2,31.3c0.2-0.4,0.4-0.7,0.5-1.1l10,2.6l-9.3-4.6c0-0.4,0.2-0.7,0.2-1.1L41.9,26.7z"/>
<g>
	<path class="st1" d="M55.9,11.3h5.2l-5.5,25.6h14.7l-1.5,4.4H49.6L55.9,11.3z"/>
	<path class="st1" d="M82.8,28.7L76,41.3h-5.7l16.4-30h6.7l4.2,30h-5.2l-1.5-12.6L82.8,28.7z M90.1,24.3c-0.8-6.5-0.8-6.3-0.8-8.8
		l0,0c-1.3,2.9-1.5,3.1-4.4,8.8H90.1z"/>
	<path class="st1" d="M103.1,32.3c0.2,3.4,2.3,5.2,6.3,5.2c3.6,0,5.7-1.5,5.7-4.4c0-2.5-1.5-3.8-5.7-5.5c-5.9-2.1-8-4.4-8-8.2
		c0-4.6,3.4-8.8,10.7-8.8c6.9,0,10.3,3.6,10.5,8.6h-5.5c-0.2-2.3-1.3-4.4-5.2-4.4c-2.9,0-4.8,1.5-4.8,4c0,1.9,1,2.9,5,4.4
		c6.1,2.1,8.8,4.6,8.8,9c0,4.8-2.9,9.2-11.7,9.2c-7.3,0-11.1-3.8-11.1-9.4h5C103.1,32.1,103.1,32.3,103.1,32.3z"/>
	<path class="st1" d="M144.4,28.7h-13.8l-1.7,8h15.5l-1.5,4.4h-20.1l6.3-30h19.5l-0.8,4.4h-14.3l-1.9,8.6h13.8L144.4,28.7z"/>
	<path class="st1" d="M225.5,28.7h-13.8l-1.7,8.2h15.5l-1.5,4.4h-20.1l6.3-30h19.5l-0.8,4.4h-14.3l-1.9,8.6h13.8L225.5,28.7z"/>
	<path class="st1" d="M154.7,28.7l-2.7,12.6h-5.2l6.3-30h10.9c5.7,0,8.8,2.9,8.8,7.5c0,4.2-2.5,6.9-6.3,8c1.5,0.6,3.8,2.1,2.7,7.3
		c-0.8,3.6-1.3,5.9-1,7.1h-5c-0.2-1.3,0.2-3.6,0.8-7.1c0.8-3.6,0-5.5-3.8-5.5C160.1,28.7,154.7,28.7,154.7,28.7z M155.5,24.3h5.2
		c4,0,6.7-1.5,6.7-4.8c0-2.5-1.5-3.8-4.6-3.8h-5.5L155.5,24.3z"/>
	<path class="st1" d="M192.8,15.7h-9l1-4.4h23.3l-1,4.4h-9l-5.5,25.6h-5.2L192.8,15.7z"/>
	<path class="st1" d="M233.7,11.3h5.2L236,25.2c2.3-2.3,10.3-9.2,15.3-13.8h6.5l-14.7,12.8l8.8,17.2h-5.9l-6.9-14l-4.4,3.4
		l-2.3,10.7h-5.2L233.7,11.3z"/>
</g>
<path class="st2" d="M25.2,21.9c0,0.5-0.5,1.1-1.1,1.1s-1.1-0.5-1.1-1.1c0-0.5,0.5-1.1,1.1-1.1S25.2,21.2,25.2,21.9z"/>
</svg>
